<svg width="60" height="60" viewBox="0 0 60 60" fill="none" xmlns="http://www.w3.org/2000/svg">
<circle cx="30" cy="30" r="30" fill="#F7F7F7"/>
<path d="M17.7135 40.336C16.0895 40.336 14.6428 39.9347 13.3735 39.132C12.1042 38.3293 11.1055 37.172 10.3775 35.66C9.66815 34.1293 9.31349 32.3093 9.31349 30.2C9.31349 28.0907 9.66815 26.28 10.3775 24.768C11.1055 23.2373 12.1042 22.0707 13.3735 21.268C14.6428 20.4653 16.0895 20.064 17.7135 20.064C19.3375 20.064 20.7842 20.4653 22.0535 21.268C23.3228 22.0707 24.3122 23.2373 25.0215 24.768C25.7495 26.28 26.1135 28.0907 26.1135 30.2C26.1135 32.3093 25.7495 34.1293 25.0215 35.66C24.3122 37.172 23.3228 38.3293 22.0535 39.132C20.7842 39.9347 19.3375 40.336 17.7135 40.336ZM17.7135 36.5C18.9082 36.5 19.8415 35.9867 20.5135 34.96C21.2042 33.9333 21.5495 32.3467 21.5495 30.2C21.5495 28.0533 21.2042 26.4667 20.5135 25.44C19.8415 24.4133 18.9082 23.9 17.7135 23.9C16.5375 23.9 15.6042 24.4133 14.9135 25.44C14.2415 26.4667 13.9055 28.0533 13.9055 30.2C13.9055 32.3467 14.2415 33.9333 14.9135 34.96C15.6042 35.9867 16.5375 36.5 17.7135 36.5ZM43.0973 36.304V40H28.2853V37.06L35.8453 29.92C36.648 29.1547 37.1893 28.5013 37.4693 27.96C37.7493 27.4 37.8893 26.8493 37.8893 26.308C37.8893 25.524 37.6187 24.9267 37.0773 24.516C36.5547 24.0867 35.78 23.872 34.7533 23.872C33.8947 23.872 33.12 24.04 32.4293 24.376C31.7387 24.6933 31.16 25.1787 30.6933 25.832L27.3893 23.704C28.1547 22.5653 29.2093 21.6787 30.5533 21.044C31.8973 20.3907 33.4373 20.064 35.1733 20.064C36.6293 20.064 37.8987 20.3067 38.9813 20.792C40.0827 21.2587 40.932 21.9307 41.5293 22.808C42.1453 23.6667 42.4533 24.684 42.4533 25.86C42.4533 26.924 42.2293 27.9227 41.7813 28.856C41.3333 29.7893 40.4653 30.8533 39.1773 32.048L34.6693 36.304H43.0973ZM48.1184 40.224C47.3531 40.224 46.7091 39.9627 46.1864 39.44C45.6637 38.9173 45.4024 38.264 45.4024 37.48C45.4024 36.6773 45.6637 36.0333 46.1864 35.548C46.7091 35.044 47.3531 34.792 48.1184 34.792C48.8837 34.792 49.5277 35.044 50.0504 35.548C50.5731 36.0333 50.8344 36.6773 50.8344 37.48C50.8344 38.264 50.5731 38.9173 50.0504 39.44C49.5277 39.9627 48.8837 40.224 48.1184 40.224Z" fill="#6FCF96"/>
</svg>
