<svg width="60" height="60" viewBox="0 0 60 60" fill="none" xmlns="http://www.w3.org/2000/svg">
<circle cx="30" cy="30" r="30" fill="#F7F7F7"/>
<path d="M16.6002 40.336C14.9762 40.336 13.5295 39.9347 12.2602 39.132C10.9909 38.3293 9.9922 37.172 9.2642 35.66C8.55487 34.1293 8.2002 32.3093 8.2002 30.2C8.2002 28.0907 8.55487 26.28 9.2642 24.768C9.9922 23.2373 10.9909 22.0707 12.2602 21.268C13.5295 20.4653 14.9762 20.064 16.6002 20.064C18.2242 20.064 19.6709 20.4653 20.9402 21.268C22.2095 22.0707 23.1989 23.2373 23.9082 24.768C24.6362 26.28 25.0002 28.0907 25.0002 30.2C25.0002 32.3093 24.6362 34.1293 23.9082 35.66C23.1989 37.172 22.2095 38.3293 20.9402 39.132C19.6709 39.9347 18.2242 40.336 16.6002 40.336ZM16.6002 36.5C17.7949 36.5 18.7282 35.9867 19.4002 34.96C20.0909 33.9333 20.4362 32.3467 20.4362 30.2C20.4362 28.0533 20.0909 26.4667 19.4002 25.44C18.7282 24.4133 17.7949 23.9 16.6002 23.9C15.4242 23.9 14.4909 24.4133 13.8002 25.44C13.1282 26.4667 12.7922 28.0533 12.7922 30.2C12.7922 32.3467 13.1282 33.9333 13.8002 34.96C14.4909 35.9867 15.4242 36.5 16.6002 36.5ZM45.4521 35.884H42.2601V40H37.8361V35.884H27.2801V32.832L36.5201 20.4H41.2801L32.7121 32.188H37.9761V28.52H42.2601V32.188H45.4521V35.884ZM50.2317 40.224C49.4663 40.224 48.8223 39.9627 48.2997 39.44C47.777 38.9173 47.5157 38.264 47.5157 37.48C47.5157 36.6773 47.777 36.0333 48.2997 35.548C48.8223 35.044 49.4663 34.792 50.2317 34.792C50.997 34.792 51.641 35.044 52.1637 35.548C52.6863 36.0333 52.9477 36.6773 52.9477 37.48C52.9477 38.264 52.6863 38.9173 52.1637 39.44C51.641 39.9627 50.997 40.224 50.2317 40.224Z" fill="#6FCF96"/>
</svg>
