<svg xmlns="http://www.w3.org/2000/svg" width="70.494" height="84.592" viewBox="0 0 70.494 84.592">
  <path id="Path_1154" data-name="Path 1154" d="M58.406,44.059A19.368,19.368,0,0,1,69.117,26.741a22.066,22.066,0,0,0-14.236-5.593,21.594,21.594,0,0,0-8.261,1.831,19.67,19.67,0,0,1-7.6,1.7,19.67,19.67,0,0,1-7.6-1.7,21.594,21.594,0,0,0-8.261-1.831C20.987,21.148,2,21.84,2,45.823c0,19.611,13.384,38.77,21.152,38.77A23.388,23.388,0,0,0,33.059,82.5a14.459,14.459,0,0,1,5.958-1.428,14.432,14.432,0,0,1,5.958,1.43,23.416,23.416,0,0,0,9.9,2.091c5.443,0,13.193-9.414,17.615-21.789A19,19,0,0,1,58.406,44.059ZM54.879,0C44.553,2.115,37.152,10.627,37.255,21.148,47.581,19.033,54.983,10.522,54.879,0Z" transform="translate(-2 0)" fill="#179afb"/>
</svg>
