<svg xmlns="http://www.w3.org/2000/svg" xmlns:xlink="http://www.w3.org/1999/xlink" width="70" height="70" viewBox="0 0 70 70"><defs><style>.a{clip-path:url(#b);}.b{fill:#e5defd;}.c{fill:#6549f6;fill-rule:evenodd;}</style><clipPath id="b"><rect width="70" height="70"/></clipPath></defs><g id="a" class="a"><path class="b" d="M35,70A35,35,0,1,0,0,35,35,35,0,0,0,35,70Z"/><path class="c" d="M27.733,0a1.61,1.61,0,0,1,1.6,1.62V17.55H2.667V1.62A1.61,1.61,0,0,1,4.267,0ZM5.333,14.85H26.667V2.7H5.333Zm24,4.05H2.667A65.981,65.981,0,0,0,0,25.647,1.345,1.345,0,0,0,1.336,27H30.664A1.345,1.345,0,0,0,32,25.647,65.974,65.974,0,0,0,29.333,18.9ZM13.651,24.3l-.623,1.35h5.943l-.623-1.35Z" transform="translate(19 22)"/></g></svg>