<svg xmlns="http://www.w3.org/2000/svg" xmlns:xlink="http://www.w3.org/1999/xlink" width="70" height="70" viewBox="0 0 70 70"><defs><style>.a{clip-path:url(#b);}.b{fill:#fbe0c7;}.c{fill:#f17b39;fill-rule:evenodd;}</style><clipPath id="b"><rect width="70" height="70"/></clipPath></defs><g id="a" class="a"><path class="b" d="M35,70A35,35,0,1,0,0,35,35,35,0,0,0,35,70Z"/><path class="c" d="M16,0A16,16,0,1,0,32,16,16,16,0,0,0,16,0Zm0,2.667A13.333,13.333,0,1,1,2.667,16,13.348,13.348,0,0,1,16,2.667Zm7.8,14.441a.253.253,0,0,0,0-.5l-7.192-1.348L15.292,6.947a.232.232,0,0,0-.457-.019c-.473,2.664-1.5,9.244-1.5,9.927a1.734,1.734,0,0,0,1.735,1.735C15.739,18.589,21.256,17.589,23.8,17.108Z" transform="translate(19 19)"/></g></svg>