<svg xmlns="http://www.w3.org/2000/svg" xmlns:xlink="http://www.w3.org/1999/xlink" width="70" height="70" viewBox="0 0 70 70"><defs><style>.a{clip-path:url(#b);}.b{fill:#e5defd;}.c{fill:#6549f6;fill-rule:evenodd;}</style><clipPath id="b"><rect width="70" height="70"/></clipPath></defs><g id="a" class="a"><path class="b" d="M35,70A35,35,0,1,0,0,35,35,35,0,0,0,35,70Z"/><path class="c" d="M0,16A16,16,0,1,1,16,32,16,16,0,0,1,0,16Zm23.843,6.752a3.161,3.161,0,0,1,2.495,1.655,13.333,13.333,0,1,0-20.669.007,3.14,3.14,0,0,1,2.489-1.661l.186-.043c2.928-.674,5.729-1.319,4.338-3.884C8.475,11.065,11.483,6.667,16,6.667c4.429,0,7.512,4.236,3.319,12.159-1.363,2.57,1.395,3.205,4.407,3.9Z" transform="translate(19 19)"/></g></svg>