<svg xmlns="http://www.w3.org/2000/svg" xmlns:xlink="http://www.w3.org/1999/xlink" width="70" height="70" viewBox="0 0 70 70"><defs><style>.a{clip-path:url(#b);}.b{fill:#fef1d8;}.c{fill:#f8c460;fill-rule:evenodd;}</style><clipPath id="b"><rect width="70" height="70"/></clipPath></defs><g id="a" class="a"><path class="b" d="M35,70A35,35,0,1,0,0,35,35,35,0,0,0,35,70Z"/><path class="c" d="M21,2.667A2.647,2.647,0,0,0,18.375,0H2.625A2.647,2.647,0,0,0,0,2.667V29.333A2.647,2.647,0,0,0,2.625,32h15.75A2.647,2.647,0,0,0,21,29.333Zm-3.281,0a.662.662,0,0,1,.656.667V28.667a.662.662,0,0,1-.656.667H3.281a.662.662,0,0,1-.656-.667V3.333a.662.662,0,0,1,.656-.667ZM12.469,4H8.531a.667.667,0,0,0,0,1.333h3.938a.667.667,0,0,0,0-1.333ZM10.5,28a1.334,1.334,0,1,1,1.311-1.333A1.323,1.323,0,0,1,10.5,28ZM3.938,24H17.063V6.667H3.938Z" transform="translate(25 19)"/></g></svg>