<svg xmlns="http://www.w3.org/2000/svg" xmlns:xlink="http://www.w3.org/1999/xlink" width="70" height="70" viewBox="0 0 70 70"><defs><style>.a{clip-path:url(#b);}.b{fill:rgba(255,184,138,0.2);}.c{fill:#f17b39;fill-rule:evenodd;}</style><clipPath id="b"><rect width="70" height="70"/></clipPath></defs><g id="a" class="a"><rect class="b" width="70" height="70" rx="35"/><path class="c" d="M16,0A16,16,0,1,0,32,16,16,16,0,0,0,16,0Zm1.333,21.409V17.333h3.992a24.685,24.685,0,0,1-.608,4.372A32.361,32.361,0,0,0,17.333,21.409Zm0,7.491a15.922,15.922,0,0,0,2.609-4.608c-.851-.111-1.721-.181-2.609-.219Zm0-14.233v-4.02a32.263,32.263,0,0,0,3.4-.3,24.65,24.65,0,0,1,.595,4.319Zm0-11.567V7.981c.895-.037,1.772-.108,2.628-.22A15.941,15.941,0,0,0,17.333,3.1Zm3.6.525a13.37,13.37,0,0,1,4.387,2.861,23.234,23.234,0,0,1-2.692.809A20.427,20.427,0,0,0,20.937,3.625ZM10.675,17.333a24.565,24.565,0,0,0,.608,4.372,32.358,32.358,0,0,1,3.384-.3V17.333Zm3.992,6.74V28.9a15.922,15.922,0,0,1-2.609-4.608C12.908,24.181,13.779,24.111,14.667,24.073Zm-3.4-13.725a24.528,24.528,0,0,0-.595,4.319h3.992v-4.02A32.263,32.263,0,0,1,11.269,10.348Zm.771-2.587A15.971,15.971,0,0,1,14.667,3.1V7.981C13.772,7.944,12.895,7.873,12.04,7.761ZM6.676,6.485a23.134,23.134,0,0,0,2.691.809,20.607,20.607,0,0,1,1.7-3.671A13.384,13.384,0,0,0,6.676,6.485ZM8.635,9.852a27.174,27.174,0,0,0-.656,4.815H2.735A13.234,13.234,0,0,1,4.891,8.643,25.421,25.421,0,0,0,8.635,9.852ZM4.917,23.4a25.6,25.6,0,0,1,3.729-1.2,27.126,27.126,0,0,1-.667-4.868H2.735A13.23,13.23,0,0,0,4.917,23.4Zm4.467,1.356a20.473,20.473,0,0,0,1.676,3.616,13.345,13.345,0,0,1-4.341-2.82A23.466,23.466,0,0,1,9.384,24.757Zm15.9.8a23.568,23.568,0,0,0-2.665-.8,20.631,20.631,0,0,1-1.677,3.617A13.415,13.415,0,0,0,25.281,25.553ZM23.353,22.2a27.121,27.121,0,0,0,.668-4.868h5.245A13.248,13.248,0,0,1,27.083,23.4,25.651,25.651,0,0,0,23.353,22.2Zm.012-12.349a27.292,27.292,0,0,1,.656,4.815h5.244a13.248,13.248,0,0,0-2.155-6.024A25.441,25.441,0,0,1,23.365,9.852Z" transform="translate(19 19)"/></g></svg>