<svg xmlns="http://www.w3.org/2000/svg" xmlns:xlink="http://www.w3.org/1999/xlink" width="340.252" height="273.06" viewBox="0 0 340.252 273.06">
  <defs>
    <radialGradient id="radial-gradient" cx="0.5" cy="0.5" r="0.266" gradientTransform="translate(-1.133 0.947) scale(1.882 1.882)" gradientUnits="objectBoundingBox">
      <stop offset="0.119"/>
      <stop offset="1" stop-color="#fff"/>
    </radialGradient>
  </defs>
  <g id="D_1" data-name="D 1" transform="translate(-747 -1696.305)">
    <g id="Point" transform="translate(-137 -26)">
      <circle id="Ellipse_67" data-name="Ellipse 67" cx="6.5" cy="6.5" r="6.5" transform="translate(888 1852)" fill="#190e34"/>
      <g id="Ellipse_68" data-name="Ellipse 68" transform="translate(884 1848)" fill="none" stroke="#190e34" stroke-width="1">
        <circle cx="10.5" cy="10.5" r="10.5" stroke="none"/>
        <circle cx="10.5" cy="10.5" r="10" fill="none"/>
      </g>
    </g>
    <g id="Device" transform="translate(28 85)">
      <ellipse id="Ellipse_3" data-name="Ellipse 3" cx="72.554" cy="136.53" rx="72.554" ry="136.53" transform="translate(914.145 1611.305)" opacity="0.4" fill="url(#radial-gradient)" style="mix-blend-mode: multiply;isolation: isolate"/>
      <g id="Group_4" data-name="Group 4" transform="translate(923.049 1619.21)">
        <g id="Group_3" data-name="Group 3" transform="translate(0 0)">
          <g id="Group_2" data-name="Group 2">
            <path id="Path_3" data-name="Path 3" d="M203.329,59.149V282.726a15.785,15.785,0,0,1-.172,2.317c-.031.186-.063.376-.1.558a15.1,15.1,0,0,1-.79,2.721c-.066.179-.14.358-.218.534a15.563,15.563,0,0,1-1.812,3.086c-.07.088-.14.183-.211.271a15.494,15.494,0,0,1-1.632,1.766c-.239.221-.484.432-.737.636-.088.077-.179.147-.271.214-.27.211-.548.41-.832.6a.625.625,0,0,1-.053.039c-.176.112-.351.225-.527.333-.2.119-.4.235-.6.348s-.408.218-.615.319c-.1.049-.207.1-.309.147s-.211.1-.316.144c-.32.14-.643.267-.973.386-.218.081-.439.154-.66.221-.112.035-.225.07-.337.1-.34.091-.684.179-1.032.25-.112.024-.228.049-.348.07s-.235.042-.351.059c-.235.039-.474.074-.713.1-.168.024-.337.035-.505.049-.14.011-.281.018-.421.025-.264.014-.523.021-.79.021H94.8c-.27,0-.534-.007-.8-.021-.14-.007-.281-.014-.422-.025-.274-.021-.544-.045-.818-.077.105.011.207.018.312.029a15.344,15.344,0,0,1-13.6-15.223V59.149a15.339,15.339,0,0,1,14.525-15.3h.01c.26-.014.519-.021.786-.021h93.209c.267,0,.523.007.786.021h0c.14.007.281.014.421.025s.274.024.411.035A15.346,15.346,0,0,1,203.329,59.149Z" transform="translate(-77.378 -41.731)" stroke="#190e34" stroke-miterlimit="10" stroke-width="1"/>
            <path id="Path_4" data-name="Path 4" d="M186.22,39.943H93.008A17.42,17.42,0,0,0,75.587,57.361V280.937a17.42,17.42,0,0,0,17.421,17.417H186.22a17.42,17.42,0,0,0,17.421-17.417V57.361A17.42,17.42,0,0,0,186.22,39.943Zm10.385,252.246c-.239.221-.484.432-.737.636-.088.077-.179.147-.271.214-.27.211-.548.41-.832.6a.625.625,0,0,1-.053.039c-.176.112-.351.225-.527.333-.2.119-.4.235-.6.348s-.408.218-.615.319c-.1.049-.207.1-.309.147s-.211.1-.316.144c-.32.14-.643.267-.973.386-.218.081-.439.154-.66.221-.112.035-.225.07-.337.1-.34.091-.684.179-1.032.25-.112.024-.228.049-.348.07s-.235.042-.351.059c-.235.039-.474.074-.713.1-.168.024-.337.035-.505.049-.14.011-.281.018-.421.025-.264.014-.523.021-.79.021H93.011c-.27,0-.534-.007-.8-.021-.14-.007-.281-.014-.422-.025-.274-.021-.544-.045-.818-.077.105.011.207.018.312.029a15.344,15.344,0,0,1-13.6-15.223V57.361a15.339,15.339,0,0,1,14.525-15.3h.01c.26-.014.519-.021.786-.021H186.22c.267,0,.523.007.786.021h0c.14.007.281.014.421.025s.274.024.411.035a15.346,15.346,0,0,1,13.7,15.237V280.937a15.784,15.784,0,0,1-.172,2.317c-.031.186-.063.376-.1.558a15.1,15.1,0,0,1-.79,2.721c-.066.179-.14.358-.218.534a15.563,15.563,0,0,1-1.812,3.086c-.07.088-.14.183-.211.271A15.5,15.5,0,0,1,196.605,292.189Z" transform="translate(-75.587 -39.943)" fill="#190e34" stroke="#fff" stroke-miterlimit="10" stroke-width="1"/>
          </g>
          <path id="Path_5" data-name="Path 5" d="M193.748,58.334H180.436a.782.782,0,0,1-.781-.781h0a.782.782,0,0,1,.781-.781h13.312a.782.782,0,0,1,.782.781h0A.782.782,0,0,1,193.748,58.334Z" transform="translate(-123.457 -47.684)" fill="#283646" stroke="#000" stroke-miterlimit="10" stroke-width="1"/>
        </g>
      </g>
      <g id="_YOUR_DESIGN_HERE_" data-name="[YOUR DESIGN HERE]" transform="translate(931.133 1627.293)">
        <path id="_Rectangle_" data-name="&lt;Rectangle&gt;" d="M193.725,54.93h-.084l-.126-.013c-.148-.006-.285-.006-.41-.006H179.655a1.555,1.555,0,0,0-1.468,1.394c0,.052-.006.1-.006.158v.019a7.43,7.43,0,0,1-7.421,7.079H122.241a7.43,7.43,0,0,1-7.421-7.079v-.019c0-.055,0-.106-.006-.158a1.555,1.555,0,0,0-1.468-1.394H99.9c-.126,0-.262,0-.41.006l-.126.013h-.084a9.337,9.337,0,0,0-8.719,9.316V287.821a9.38,9.38,0,0,0,8.6,9.307l.126.01h.032l.026,0h.055l.019,0c.161.006.323.013.485.013H193.1c.161,0,.323-.006.485-.013l.019,0h.055l.026,0h.032l.126-.01a9.38,9.38,0,0,0,8.6-9.307V64.247A9.336,9.336,0,0,0,193.725,54.93Z" transform="translate(-90.557 -54.911)" fill="#e9eef4"/>
      </g>
      <text id="_" data-name="&lt;/&gt;" transform="translate(950 1727)" fill="#283646" font-size="35" font-family="Roboto-Bold, Roboto" font-weight="700"><tspan x="-24.481" y="37">&lt;</tspan><tspan y="37" fill="#179afb">/</tspan><tspan y="37">&gt;</tspan></text>
    </g>
    <line id="Line_50" data-name="Line 50" x2="199" transform="translate(757.5 1832.5)" fill="none" stroke="#190e34" stroke-linecap="round" stroke-width="1"/>
  </g>
</svg>
