<svg xmlns="http://www.w3.org/2000/svg" width="40.993" height="40.993" viewBox="0 0 40.993 40.993">
  <path id="_5279111_network_fb_social_media_facebook_facebook_logo_icon" data-name="5279111_network_fb_social media_facebook_facebook logo_icon" d="M20.418,40.993h0Zm.145,0h0Zm-.207,0h0Zm.273,0h0Zm-.334,0h0Zm.4,0h0Zm.066,0h0Zm-.543,0h0Zm.609,0h0Zm-.673,0h0Zm.739,0h0Zm-.8,0h0Zm-.075,0h0Zm.94,0h0Zm-1.006,0h0Zm1.072,0h0Zm.066,0h0Zm-1.2,0h0Zm-.058,0h0Zm1.322,0h0Zm.066,0h0Zm-1.471,0h0Zm-.06,0h0Zm1.6,0h0Zm-1.655,0h0Zm1.721,0h0Zm-1.8,0h0Zm1.869,0h0Zm-1.928,0h0Zm1.994,0h0Zm-2.052,0,.032,0h-.032Zm2.118,0h-.022l.032,0Zm.065,0-.029,0h.026l.03,0Zm-2.236,0h.026l-.029,0-.027,0,.03,0Zm2.3,0h-.013l.033,0Zm-2.389,0,.033,0h-.033Zm-.058,0,.032,0h-.032Zm2.513,0h-.02l.032,0h-.012Zm-2.568,0,.029,0-.027,0-.027,0Zm2.633,0-.027,0,.029,0,.025,0-.027,0Zm.065,0h-.01l.031,0h-.021Zm-2.783,0,.031,0h-.031Zm-.058,0,.03,0h-.03Zm2.906,0h-.017l.03,0Zm-2.963-.005.028,0-.022,0h-.006Zm3.028,0-.022,0,.028,0ZM18.9,40.931l.024,0H18.9Zm3.171,0h-.006l.025,0Zm.065-.005h-.012l.025,0Zm-3.3,0,.025,0h-.025Zm-.058,0,.021,0h-.021Zm3.418,0h-.015l.021,0Zm-3.482-.006h0Zm3.547,0h0Zm.065-.006h0Zm-3.68,0h0Zm-.06-.005h0Zm3.8,0h0Zm-5.1-.162a20.5,20.5,0,1,1,6.405,0V26.421h4.776l.909-5.925H23.7V16.652c0-1.621.794-3.2,3.34-3.2h2.585V8.407a31.518,31.518,0,0,0-4.588-.4c-4.682,0-7.742,2.837-7.742,7.974V20.5h-5.2v5.925h5.2Z" fill-rule="evenodd"/>
</svg>
