<svg xmlns="http://www.w3.org/2000/svg" width="40.993" height="40.993" viewBox="0 0 40.993 40.993">
  <g id="_1161954_instagram_icon" data-name="1161954_instagram_icon" transform="translate(-3.7 -5.2)">
    <circle id="Ellipse_70" data-name="Ellipse 70" cx="3.666" cy="3.666" r="3.666" transform="translate(20.364 22.197)"/>
    <path id="Path_2321" data-name="Path 2321" d="M30.881,19.2H21.716a4.553,4.553,0,0,0-3.249,1.166A4.553,4.553,0,0,0,17.3,23.616v9.165a4.593,4.593,0,0,0,1.25,3.333A4.7,4.7,0,0,0,21.8,37.28h9.082a4.553,4.553,0,0,0,3.249-1.166,4.268,4.268,0,0,0,1.25-3.249V23.7a4.7,4.7,0,0,0-1.166-3.249A4.461,4.461,0,0,0,30.881,19.2ZM26.3,33.864a5.666,5.666,0,1,1,0-11.331,5.666,5.666,0,1,1,0,11.331Zm5.916-10.248a1.333,1.333,0,1,1,1.333-1.333A1.316,1.316,0,0,1,32.214,23.616Z" transform="translate(-2.269 -2.335)"/>
    <path id="Path_2322" data-name="Path 2322" d="M24.2,5.2a20.5,20.5,0,1,0,20.5,20.5A20.482,20.482,0,0,0,24.2,5.2ZM35.111,30.529a6.6,6.6,0,0,1-1.833,4.749,6.484,6.484,0,0,1-4.666,1.75H19.531a6.484,6.484,0,0,1-4.666-1.75,6.277,6.277,0,0,1-1.833-4.749V21.364a6.166,6.166,0,0,1,6.5-6.5H28.7a6.145,6.145,0,0,1,6.416,6.5v9.165Z"/>
  </g>
</svg>
