<svg xmlns="http://www.w3.org/2000/svg" width="41" height="41" viewBox="0 0 41 41">
  <path id="_5279114_linkedin_network_social_network_linkedin_logo_icon" data-name="5279114_linkedin_network_social network_linkedin logo_icon" d="M20.5,0A20.5,20.5,0,1,1,0,20.5,20.51,20.51,0,0,1,20.5,0ZM14.091,32.021V16.012H8.768V32.021Zm19.188,0V22.84c0-4.918-2.626-7.205-6.127-7.205a5.285,5.285,0,0,0-4.8,2.643V16.012H17.036c.071,1.5,0,16.009,0,16.009h5.321V23.08a3.638,3.638,0,0,1,.175-1.3,2.912,2.912,0,0,1,2.73-1.946c1.925,0,2.7,1.469,2.7,3.62v8.566ZM11.466,8.292a2.774,2.774,0,1,0-.07,5.533h.034a2.775,2.775,0,1,0,.036-5.533Z" fill-rule="evenodd"/>
</svg>
