<svg width="128" height="21" viewBox="0 0 128 21" fill="none" xmlns="http://www.w3.org/2000/svg">
<path d="M121.338 17.3818H122.543C123.306 17.3818 123.927 16.7729 123.927 16.0249V12.6886C123.927 11.6591 124.329 10.7211 124.985 10.0122C124.329 9.30318 123.927 8.36523 123.927 7.33569V3.99774C123.927 3.24975 123.306 2.64085 122.543 2.64085H121.338C121.058 1.60283 120.47 0.688622 119.669 0H122.541C124.789 0 126.617 1.79279 126.617 3.99774V7.33399C126.617 8.08198 127.238 8.69088 128.001 8.69088V11.3317C127.238 11.3317 126.617 11.9406 126.617 12.6886V16.0249C126.617 18.2298 124.789 20.0226 122.541 20.0226H119.669C120.47 19.3323 121.059 18.4198 121.338 17.3818Z" fill="black"/>
<path d="M19.8195 4.23523C21.1182 4.23523 22.1592 4.63721 22.9409 5.44117C23.7225 6.24512 24.1151 7.33403 24.1151 8.70958V15.377H22.1886V8.81813C22.1886 7.93445 21.9448 7.25092 21.4571 6.76583C20.9694 6.28074 20.2985 6.0382 19.4425 6.0382C18.4827 6.0382 17.708 6.33163 17.1165 6.91848C16.5269 7.50534 16.2311 8.40597 16.2311 9.62209V15.377H14.3047V4.51678H16.2311V6.0806C17.0145 4.85092 18.2095 4.23523 19.8195 4.23523Z" fill="black"/>
<path d="M27.5456 2.54078C27.1773 2.54078 26.866 2.41866 26.6153 2.17103C26.3645 1.92509 26.2383 1.62827 26.2383 1.28057C26.2383 0.932862 26.3628 0.63265 26.6153 0.379929C26.866 0.127208 27.1756 0 27.5456 0C27.9001 0 28.2028 0.127208 28.4535 0.379929C28.7043 0.63265 28.8305 0.934558 28.8305 1.28057C28.8305 1.62827 28.7043 1.92509 28.4535 2.17103C28.2028 2.41866 27.9001 2.54078 27.5456 2.54078ZM26.572 15.377V4.51675H28.4985V15.3753H26.572V15.377Z" fill="black"/>
<path d="M36.7355 4.23523C38.0342 4.23523 39.0752 4.63721 39.8569 5.44117C40.6385 6.24512 41.0311 7.33403 41.0311 8.70958V15.377H39.1046V8.81813C39.1046 7.93445 38.8608 7.25092 38.3731 6.76583C37.8855 6.28074 37.2145 6.0382 36.3585 6.0382C35.3987 6.0382 34.624 6.33163 34.0326 6.91848C33.4429 7.50534 33.1472 8.40597 33.1472 9.62209V15.377H31.2207V4.51678H33.1472V6.0806C33.9305 4.85092 35.1255 4.23523 36.7355 4.23523Z" fill="black"/>
<path d="M43.7324 16.0283V4.51675H45.6589V16.0283C45.6589 17.4327 45.2974 18.4724 44.5746 19.144C43.8517 19.8174 42.7882 20.1023 41.3857 20.0023V18.1772C42.1968 18.2502 42.7917 18.1196 43.1687 17.7871C43.5439 17.453 43.7324 16.8678 43.7324 16.0283ZM44.7077 2.54078C44.3394 2.54078 44.0281 2.41866 43.7774 2.17103C43.5266 1.92509 43.4004 1.62827 43.4004 1.28057C43.4004 0.932862 43.5249 0.63265 43.7774 0.379929C44.0281 0.127208 44.3377 0 44.7077 0C45.0623 0 45.3649 0.127208 45.6156 0.379929C45.8664 0.63265 45.9926 0.934558 45.9926 1.28057C45.9926 1.62827 45.8664 1.92509 45.6156 2.17103C45.3632 2.41866 45.0623 2.54078 44.7077 2.54078Z" fill="black"/>
<path d="M57.5291 4.51671H59.4555V15.3752H57.5291V13.5078C56.5693 14.941 55.1738 15.6585 53.3442 15.6585C51.7947 15.6585 50.4735 15.1055 49.3806 13.9963C48.2877 12.8887 47.7412 11.5386 47.7412 9.94597C47.7412 8.35332 48.2877 7.00321 49.3806 5.89565C50.4735 4.78809 51.7947 4.23346 53.3442 4.23346C55.1738 4.23346 56.5693 4.95092 57.5291 6.38413V4.51671ZM53.5863 13.8352C54.7086 13.8352 55.6459 13.462 56.3981 12.7174C57.1504 11.9711 57.5274 11.0484 57.5274 9.94767C57.5274 8.84689 57.1504 7.9242 56.3981 7.17791C55.6459 6.43162 54.7069 6.06017 53.5863 6.06017C52.4795 6.06017 51.5491 6.43332 50.7969 7.17791C50.0446 7.9242 49.6677 8.84689 49.6677 9.94767C49.6677 11.0484 50.0446 11.9711 50.7969 12.7174C51.5491 13.462 52.4795 13.8352 53.5863 13.8352Z" fill="black"/>
<path d="M63.7939 7.41714C63.7939 7.8276 64.0118 8.15664 64.4459 8.40428C64.88 8.65191 65.3987 8.86223 66.0005 9.03523C66.6023 9.20823 67.2076 9.38293 67.8163 9.55763C68.425 9.73233 68.9404 10.0614 69.3623 10.5431C69.7843 11.0248 69.9952 11.6439 69.9952 12.3986C69.9952 13.3841 69.6079 14.1728 68.8332 14.7664C68.0584 15.36 67.0658 15.6569 65.8553 15.6569C64.7779 15.6569 63.8545 15.4245 63.0867 14.9614C62.3188 14.4984 61.7724 13.8827 61.4473 13.1161L63.1074 12.1815C63.2838 12.7022 63.6158 13.1161 64.1035 13.4197C64.5912 13.7233 65.1739 13.8759 65.8535 13.8759C66.4882 13.8759 67.0122 13.7572 67.4255 13.5181C67.8388 13.2789 68.0446 12.9075 68.0446 12.402C68.0446 11.9831 67.8302 11.6472 67.4013 11.3945C66.9724 11.1418 66.4571 10.9264 65.857 10.75C65.2552 10.5736 64.6499 10.3955 64.0412 10.2157C63.4325 10.0359 62.9137 9.71537 62.4866 9.25233C62.0577 8.78929 61.845 8.19565 61.845 7.47141C61.845 6.53007 62.2168 5.75495 62.9639 5.14774C63.7092 4.53883 64.643 4.23523 65.7654 4.23523C66.6663 4.23523 67.467 4.43367 68.1674 4.83226C68.8677 5.23085 69.3969 5.78378 69.7514 6.49445L68.1345 7.38491C67.7368 6.45883 66.9465 5.99579 65.7654 5.99579C65.2189 5.99579 64.7537 6.11961 64.3698 6.36724C63.9859 6.61318 63.7939 6.96428 63.7939 7.41714Z" fill="black"/>
<path d="M77.1681 15.6806C75.4993 15.6806 74.1089 15.131 72.9935 14.0303C71.8781 12.9295 71.3213 11.5692 71.3213 9.94771C71.3213 8.32622 71.8781 6.96594 72.9935 5.86516C74.1072 4.76438 75.4993 4.21484 77.1681 4.21484C78.2454 4.21484 79.2277 4.46756 80.1131 4.9747C80.9985 5.48184 81.6695 6.16198 82.1277 7.01682L79.6704 8.42799C79.449 7.97852 79.1136 7.62403 78.6622 7.36453C78.2109 7.10332 77.7059 6.97442 77.1456 6.97442C76.2896 6.97442 75.5806 7.25258 75.0203 7.8106C74.4583 8.36862 74.1798 9.08099 74.1798 9.9494C74.1798 10.8042 74.46 11.5098 75.0203 12.0662C75.5806 12.6242 76.2896 12.9023 77.1456 12.9023C77.7215 12.9023 78.2333 12.7751 78.6847 12.5224C79.1343 12.2697 79.4698 11.9186 79.6929 11.4691L82.1727 12.8582C81.685 13.7131 80.9985 14.3966 80.1131 14.9105C79.2277 15.4228 78.2454 15.6806 77.1681 15.6806Z" fill="black"/>
<path d="M92.7133 14.0184C91.5755 15.1259 90.1885 15.6805 88.5509 15.6805C86.9115 15.6805 85.5281 15.1276 84.3988 14.0184C83.2696 12.9108 82.7041 11.5539 82.7041 9.94598C82.7041 8.33807 83.2679 6.98118 84.3988 5.87362C85.5298 4.76605 86.9115 4.21143 88.5509 4.21143C90.1903 4.21143 91.5772 4.76436 92.7133 5.87362C93.8495 6.98118 94.4184 8.33807 94.4184 9.94598C94.4184 11.5539 93.8495 12.9108 92.7133 14.0184ZM86.4135 12.0967C86.9824 12.6615 87.6932 12.943 88.5509 12.943C89.4069 12.943 90.1228 12.6615 90.6987 12.0967C91.2746 11.5318 91.5616 10.8161 91.5616 9.94598C91.5616 9.07588 91.2746 8.36012 90.6987 7.79531C90.1228 7.23051 89.4069 6.94895 88.5509 6.94895C87.6949 6.94895 86.9824 7.23051 86.4135 7.79531C85.8445 8.36012 85.5609 9.07588 85.5609 9.94598C85.5609 10.8161 85.8445 11.5318 86.4135 12.0967Z" fill="black"/>
<path d="M104.604 0.173035H107.461V15.3753H104.604V14.0947C103.762 15.1514 102.567 15.6806 101.017 15.6806C99.5267 15.6806 98.2539 15.1277 97.1973 14.0184C96.1424 12.9108 95.6133 11.554 95.6133 9.94604C95.6133 8.33812 96.1407 6.98123 97.1973 5.87367C98.2522 4.76611 99.525 4.21148 101.017 4.21148C102.567 4.21148 103.764 4.74067 104.604 5.79735V0.173035ZM99.3451 12.151C99.9279 12.7226 100.663 13.0092 101.548 13.0092C102.434 13.0092 103.165 12.7226 103.741 12.151C104.317 11.5794 104.604 10.845 104.604 9.94604C104.604 9.04879 104.317 8.31438 103.741 7.74109C103.165 7.1695 102.435 6.88286 101.548 6.88286C100.663 6.88286 99.9279 7.1695 99.3451 7.74109C98.7623 8.31268 98.4701 9.0471 98.4701 9.94604C98.4701 10.845 98.7606 11.5794 99.3451 12.151Z" fill="black"/>
<path d="M112.265 11.0977C112.649 12.4579 113.69 13.1398 115.386 13.1398C116.479 13.1398 117.306 12.7785 117.866 12.0543L120.169 13.3569C119.076 14.9054 117.468 15.6806 115.343 15.6806C113.511 15.6806 112.043 15.1378 110.937 14.0523C109.83 12.9668 109.276 11.598 109.276 9.94769C109.276 8.31094 109.823 6.94727 110.916 5.85328C112.009 4.76098 113.409 4.21313 115.123 4.21313C116.747 4.21313 118.087 4.76268 119.142 5.86345C120.197 6.96423 120.726 8.32451 120.726 9.946C120.726 10.3073 120.69 10.6923 120.615 11.0977H112.265ZM112.221 8.92663H117.868C117.705 8.18882 117.37 7.63759 116.859 7.27631C116.351 6.91504 115.77 6.73356 115.121 6.73356C114.354 6.73356 113.719 6.92522 113.217 7.30854C112.714 7.69186 112.382 8.23123 112.221 8.92663Z" fill="black"/>
<path d="M13.2603 17.3818H12.055C11.2924 17.3818 10.6716 16.7729 10.6716 16.0249V12.6886C10.6716 11.6591 10.2686 10.7211 9.61323 10.0122C10.2686 9.30318 10.6716 8.36523 10.6716 7.33569V3.99774C10.6716 3.24975 11.2924 2.64085 12.055 2.64085H13.2603C13.5405 1.60283 14.1285 0.688622 14.9291 0H12.055C9.80691 0 7.97903 1.79279 7.97903 3.99774V7.33399C7.97903 7.68339 7.84242 8.00226 7.62106 8.24141C6.18574 7.00155 4.08636 5.65484 1.09638 4.67279L0 10.1902C0 10.1902 3.03321 9.46431 6.48837 10.1258C5.13778 10.292 3.46381 10.7449 1.63247 11.7982L4.56538 15.879C4.56538 15.879 5.39717 13.4875 7.50347 11.6659C7.794 11.9152 7.97903 12.2799 7.97903 12.6886V16.0249C7.97903 18.2298 9.80691 20.0226 12.055 20.0226H14.9274C14.1285 19.3323 13.5405 18.4198 13.2603 17.3818Z" fill="black"/>
</svg>
