<svg width="89" height="14" viewBox="0 0 89 14" fill="none" xmlns="http://www.w3.org/2000/svg">
<path d="M84.3674 12.0857H85.2054C85.7357 12.0857 86.1674 11.6624 86.1674 11.1423V8.82253C86.1674 8.10668 86.4475 7.45452 86.9032 6.96156C86.4475 6.4686 86.1674 5.81643 86.1674 5.10058V2.77967C86.1674 2.25959 85.7357 1.83621 85.2054 1.83621H84.3674C84.1726 1.11446 83.7637 0.478806 83.207 0H85.2042C86.7674 0 88.0383 1.24655 88.0383 2.77967V5.0994C88.0383 5.61949 88.47 6.04286 89.0002 6.04286V7.87907C88.47 7.87907 88.0383 8.30245 88.0383 8.82253V11.1423C88.0383 12.6754 86.7674 13.9219 85.2042 13.9219H83.207C83.7637 13.442 84.1738 12.8075 84.3674 12.0857Z" fill="white"/>
<path d="M13.7808 2.94482C14.6838 2.94482 15.4076 3.22432 15.9511 3.78333C16.4946 4.34233 16.7675 5.09945 16.7675 6.05589V10.6918H15.4281V6.13136C15.4281 5.51693 15.2585 5.04167 14.9194 4.70438C14.5804 4.36709 14.1138 4.19845 13.5186 4.19845C12.8513 4.19845 12.3126 4.40247 11.9014 4.81052C11.4914 5.21856 11.2858 5.84479 11.2858 6.69036V10.6918H9.94629V3.14059H11.2858V4.22793C11.8305 3.37292 12.6613 2.94482 13.7808 2.94482Z" fill="white"/>
<path d="M19.1527 1.76663C18.8966 1.76663 18.6801 1.68172 18.5058 1.50954C18.3314 1.33853 18.2437 1.13215 18.2437 0.890391C18.2437 0.648629 18.3302 0.439889 18.5058 0.264169C18.6801 0.0884494 18.8954 0 19.1527 0C19.3992 0 19.6096 0.0884494 19.7839 0.264169C19.9583 0.439889 20.0461 0.649809 20.0461 0.890391C20.0461 1.13215 19.9583 1.33853 19.7839 1.50954C19.6096 1.68172 19.3992 1.76663 19.1527 1.76663ZM18.4757 10.6918V3.14054H19.8152V10.6906H18.4757V10.6918Z" fill="white"/>
<path d="M25.5425 2.94482C26.4455 2.94482 27.1693 3.22432 27.7128 3.78333C28.2563 4.34233 28.5293 5.09945 28.5293 6.05589V10.6918H27.1898V6.13136C27.1898 5.51693 27.0202 5.04167 26.6812 4.70438C26.3421 4.36709 25.8756 4.19845 25.2804 4.19845C24.613 4.19845 24.0743 4.40247 23.6631 4.81052C23.2531 5.21856 23.0475 5.84479 23.0475 6.69036V10.6918H21.708V3.14059H23.0475V4.22793C23.5922 3.37292 24.423 2.94482 25.5425 2.94482Z" fill="white"/>
<path d="M30.4075 11.1446V3.14054H31.747V11.1446C31.747 12.1211 31.4957 12.844 30.9931 13.311C30.4905 13.7792 29.751 13.9774 28.7759 13.9078V12.6388C29.3398 12.6895 29.7534 12.5987 30.0156 12.3676C30.2765 12.1353 30.4075 11.7284 30.4075 11.1446ZM31.0857 1.76663C30.8296 1.76663 30.6132 1.68172 30.4388 1.50954C30.2645 1.33853 30.1767 1.13215 30.1767 0.890391C30.1767 0.648629 30.2633 0.439889 30.4388 0.264169C30.6132 0.0884494 30.8284 0 31.0857 0C31.3322 0 31.5426 0.0884494 31.717 0.264169C31.8913 0.439889 31.9791 0.649809 31.9791 0.890391C31.9791 1.13215 31.8913 1.33853 31.717 1.50954C31.5414 1.68172 31.3322 1.76663 31.0857 1.76663Z" fill="white"/>
<path d="M40.0004 3.14049H41.3399V10.6905H40.0004V9.3921C39.3331 10.3886 38.3628 10.8875 37.0906 10.8875C36.0133 10.8875 35.0946 10.503 34.3347 9.73174C33.5748 8.96164 33.1948 8.0229 33.1948 6.91551C33.1948 5.80812 33.5748 4.86938 34.3347 4.09928C35.0946 3.32918 36.0133 2.94354 37.0906 2.94354C38.3628 2.94354 39.3331 3.4424 40.0004 4.43893V3.14049ZM37.259 9.61971C38.0393 9.61971 38.691 9.36025 39.2141 8.84253C39.7371 8.32363 39.9992 7.68207 39.9992 6.91669C39.9992 6.15131 39.7371 5.50976 39.2141 4.99085C38.691 4.47195 38.0381 4.21368 37.259 4.21368C36.4894 4.21368 35.8425 4.47313 35.3195 4.99085C34.7964 5.50976 34.5343 6.15131 34.5343 6.91669C34.5343 7.68207 34.7964 8.32363 35.3195 8.84253C35.8425 9.36025 36.4894 9.61971 37.259 9.61971Z" fill="white"/>
<path d="M44.3568 5.15724C44.3568 5.44264 44.5083 5.67143 44.8101 5.84361C45.1119 6.01579 45.4726 6.16202 45.891 6.28232C46.3095 6.40261 46.7303 6.52408 47.1536 6.64555C47.5768 6.76702 47.9351 6.99581 48.2285 7.33074C48.5219 7.66567 48.6686 8.09612 48.6686 8.62092C48.6686 9.30611 48.3993 9.85449 47.8606 10.2673C47.3219 10.68 46.6317 10.8864 45.79 10.8864C45.0409 10.8864 44.3989 10.7248 43.865 10.4029C43.3311 10.0809 42.9512 9.65283 42.7251 9.11977L43.8794 8.46996C44.0021 8.83202 44.2329 9.11977 44.572 9.33087C44.9111 9.54197 45.3163 9.64811 45.7888 9.64811C46.2301 9.64811 46.5944 9.56556 46.8818 9.39927C47.1692 9.23299 47.3123 8.97472 47.3123 8.62328C47.3123 8.33198 47.1632 8.09848 46.865 7.92276C46.5668 7.74704 46.2085 7.59726 45.7912 7.47461C45.3728 7.35196 44.952 7.22814 44.5287 7.10313C44.1055 6.97812 43.7447 6.75523 43.4477 6.43327C43.1495 6.11131 43.0017 5.69855 43.0017 5.19498C43.0017 4.54045 43.2602 4.0015 43.7796 3.5793C44.2978 3.15592 44.9471 2.94482 45.7275 2.94482C46.354 2.94482 46.9107 3.08281 47.3977 3.35995C47.8846 3.63709 48.2526 4.02155 48.4991 4.51569L47.3748 5.13483C47.0983 4.49092 46.5488 4.16896 45.7275 4.16896C45.3475 4.16896 45.0241 4.25506 44.7572 4.42724C44.4902 4.59824 44.3568 4.84236 44.3568 5.15724Z" fill="white"/>
<path d="M53.6557 10.9028C52.4953 10.9028 51.5286 10.5207 50.7531 9.75536C49.9775 8.98998 49.5903 8.04416 49.5903 6.91672C49.5903 5.78929 49.9775 4.84347 50.7531 4.07809C51.5274 3.3127 52.4953 2.9306 53.6557 2.9306C54.4048 2.9306 55.0877 3.10632 55.7034 3.45894C56.319 3.81156 56.7855 4.28447 57.1042 4.87885L55.3956 5.86005C55.2416 5.54753 55.0084 5.30105 54.6946 5.12061C54.3807 4.93899 54.0296 4.84937 53.64 4.84937C53.0448 4.84937 52.5519 5.04278 52.1623 5.43077C51.7715 5.81877 51.5779 6.31409 51.5779 6.9179C51.5779 7.51228 51.7727 8.00288 52.1623 8.3897C52.5519 8.7777 53.0448 8.97111 53.64 8.97111C54.0404 8.97111 54.3964 8.88266 54.7102 8.70694C55.0228 8.53122 55.2561 8.2871 55.4112 7.97458L57.1354 8.94045C56.7964 9.53483 56.319 10.0101 55.7034 10.3674C55.0877 10.7236 54.4048 10.9028 53.6557 10.9028Z" fill="white"/>
<path d="M64.4644 9.74708C63.6732 10.5172 62.7089 10.9028 61.5702 10.9028C60.4303 10.9028 59.4684 10.5184 58.6832 9.74708C57.8981 8.97698 57.5049 8.03352 57.5049 6.91552C57.5049 5.79752 57.8969 4.85406 58.6832 4.08396C59.4696 3.31386 60.4303 2.92822 61.5702 2.92822C62.7101 2.92822 63.6744 3.31268 64.4644 4.08396C65.2544 4.85406 65.65 5.79752 65.65 6.91552C65.65 8.03352 65.2544 8.97698 64.4644 9.74708ZM60.084 8.41091C60.4796 8.80362 60.9738 8.99939 61.5702 8.99939C62.1654 8.99939 62.6632 8.80362 63.0636 8.41091C63.464 8.01819 63.6636 7.52052 63.6636 6.91552C63.6636 6.31053 63.464 5.81285 63.0636 5.42014C62.6632 5.02742 62.1654 4.83165 61.5702 4.83165C60.975 4.83165 60.4796 5.02742 60.084 5.42014C59.6885 5.81285 59.4913 6.31053 59.4913 6.91552C59.4913 7.52052 59.6885 8.01819 60.084 8.41091Z" fill="white"/>
<path d="M72.7323 0.1203H74.7186V10.6906H72.7323V9.80021C72.1467 10.5349 71.3158 10.9029 70.2385 10.9029C69.202 10.9029 68.317 10.5184 67.5824 9.74714C66.8489 8.97704 66.481 8.03358 66.481 6.91557C66.481 5.79757 66.8477 4.85411 67.5824 4.08401C68.3158 3.31391 69.2008 2.92827 70.2385 2.92827C71.3158 2.92827 72.1479 3.29622 72.7323 4.03094V0.1203ZM69.0757 8.4487C69.481 8.84613 69.992 9.04544 70.6076 9.04544C71.2232 9.04544 71.7319 8.84613 72.1323 8.4487C72.5327 8.05127 72.7323 7.54062 72.7323 6.91557C72.7323 6.29171 72.5327 5.78106 72.1323 5.38245C71.7319 4.98502 71.2244 4.78571 70.6076 4.78571C69.992 4.78571 69.481 4.98502 69.0757 5.38245C68.6705 5.77988 68.4673 6.29053 68.4673 6.91557C68.4673 7.54062 68.6693 8.05127 69.0757 8.4487Z" fill="white"/>
<path d="M78.0587 7.71633C78.3257 8.66215 79.0495 9.13623 80.2291 9.13623C80.989 9.13623 81.5637 8.88504 81.9533 8.38147L83.5549 9.28719C82.795 10.3639 81.6768 10.9029 80.199 10.9029C78.9257 10.9029 77.9048 10.5255 77.1353 9.77071C76.3657 9.01594 75.981 8.06423 75.981 6.91674C75.981 5.77869 76.3609 4.83052 77.1208 4.06985C77.8808 3.31037 78.8547 2.92944 80.0463 2.92944C81.1754 2.92944 82.1072 3.31154 82.8407 4.07693C83.5742 4.84231 83.9421 5.78813 83.9421 6.91556C83.9421 7.16676 83.9168 7.43447 83.8651 7.71633H78.0587ZM78.0287 6.20679H81.9545C81.8415 5.69378 81.6082 5.3105 81.2535 5.05931C80.9 4.80811 80.496 4.68192 80.0451 4.68192C79.5112 4.68192 79.0699 4.81518 78.7212 5.08171C78.3713 5.34824 78.1405 5.72327 78.0287 6.20679Z" fill="white"/>
<path d="M9.22006 12.0857H8.38198C7.85172 12.0857 7.42005 11.6624 7.42005 11.1423V8.82253C7.42005 8.10668 7.13989 7.45452 6.68418 6.96156C7.13989 6.4686 7.42005 5.81643 7.42005 5.10058V2.77967C7.42005 2.25959 7.85172 1.83621 8.38198 1.83621H9.22006C9.41485 1.11446 9.82367 0.478806 10.3804 0H8.38198C6.81885 0 5.54791 1.24655 5.54791 2.77967V5.0994C5.54791 5.34235 5.45292 5.56406 5.29901 5.73034C4.30101 4.86826 2.84129 3.93187 0.762326 3.24904L0 7.08539C0 7.08539 2.10902 6.58064 4.51143 7.04057C3.57235 7.15615 2.40842 7.47103 1.13507 8.20339L3.17436 11.0408C3.17436 11.0408 3.75271 9.378 5.21724 8.1114C5.41925 8.28476 5.54791 8.53832 5.54791 8.82253V11.1423C5.54791 12.6754 6.81885 13.9219 8.38198 13.9219H10.3792C9.82367 13.442 9.41485 12.8075 9.22006 12.0857Z" fill="white"/>
</svg>
