<svg xmlns="http://www.w3.org/2000/svg" xmlns:xlink="http://www.w3.org/1999/xlink" width="414.019" height="471.955" viewBox="0 0 414.019 471.955">
  <defs>
    <linearGradient id="linear-gradient" x1="0.339" y1="0.027" x2="0.863" y2="1.961" gradientUnits="objectBoundingBox">
      <stop offset="0.004" stop-color="#e38ddd"/>
      <stop offset="1" stop-color="#9571f6"/>
    </linearGradient>
    <linearGradient id="linear-gradient-2" x1="0.491" y1="0.477" x2="0.209" y2="0.496" gradientUnits="objectBoundingBox">
      <stop offset="0" stop-color="#444b8c"/>
      <stop offset="0.996" stop-color="#26264f"/>
    </linearGradient>
    <linearGradient id="linear-gradient-3" x1="0.708" y1="0.034" x2="0.013" y2="1.514" gradientUnits="objectBoundingBox">
      <stop offset="0" stop-color="#179afb"/>
      <stop offset="0.996" stop-color="#52ffff"/>
      <stop offset="1" stop-color="#26264f"/>
    </linearGradient>
    <linearGradient id="linear-gradient-4" x1="0.602" y1="-0.466" x2="-0.015" y2="5.323" gradientUnits="objectBoundingBox">
      <stop offset="0" stop-color="#311944"/>
      <stop offset="1" stop-color="#6b3976"/>
    </linearGradient>
    <linearGradient id="linear-gradient-5" x1="0.704" y1="-1.354" x2="0.086" y2="4.22" xlink:href="#linear-gradient-4"/>
    <linearGradient id="linear-gradient-6" x1="0.992" y1="-1.6" x2="0.393" y2="0.938" xlink:href="#linear-gradient-4"/>
    <linearGradient id="linear-gradient-7" x1="1.242" y1="-1.766" x2="0.006" y2="1.998" xlink:href="#linear-gradient-4"/>
    <linearGradient id="linear-gradient-8" x1="1.105" y1="-1.317" x2="-0.179" y2="2.526" xlink:href="#linear-gradient-4"/>
    <linearGradient id="linear-gradient-9" x1="-0.074" y1="8.894" x2="0.216" y2="4.642" gradientUnits="objectBoundingBox">
      <stop offset="0" stop-color="#f36f56"/>
      <stop offset="0.004" stop-color="#190e34"/>
      <stop offset="1" stop-color="#301e5b"/>
    </linearGradient>
    <linearGradient id="linear-gradient-10" x1="0.222" y1="2.324" x2="0.504" y2="0.461" gradientUnits="objectBoundingBox">
      <stop offset="0" stop-color="#f36f56"/>
      <stop offset="0.004" stop-color="#52ffff"/>
      <stop offset="1" stop-color="#190e34"/>
    </linearGradient>
    <clipPath id="clip-path">
      <circle id="Ellipse_1" data-name="Ellipse 1" cx="77.706" cy="77.706" r="77.706" fill="none"/>
    </clipPath>
    <linearGradient id="linear-gradient-13" x1="-0.074" y1="8.894" x2="0.216" y2="4.642" gradientUnits="objectBoundingBox">
      <stop offset="0.004" stop-color="#f36f56"/>
      <stop offset="1" stop-color="#ffc444"/>
    </linearGradient>
    <linearGradient id="linear-gradient-14" x1="0.222" y1="2.324" x2="0.504" y2="0.461" xlink:href="#linear-gradient-13"/>
    <linearGradient id="linear-gradient-15" x1="23.969" y1="1.25" x2="23.847" y2="-4.967" gradientUnits="objectBoundingBox">
      <stop offset="0" stop-color="#ffc444"/>
      <stop offset="0.996" stop-color="#f36f56"/>
    </linearGradient>
    <linearGradient id="linear-gradient-16" x1="17.118" y1="1.436" x2="17.032" y2="-2.947" xlink:href="#linear-gradient-15"/>
    <linearGradient id="linear-gradient-17" x1="3.603" y1="0.505" x2="4.605" y2="0.505" gradientUnits="objectBoundingBox">
      <stop offset="0" stop-color="#190e34"/>
      <stop offset="0.996" stop-color="#3e4177"/>
      <stop offset="1" stop-color="#3e4177"/>
    </linearGradient>
    <linearGradient id="linear-gradient-18" x1="3.791" y1="0.505" x2="4.865" y2="0.505" xlink:href="#linear-gradient-17"/>
    <linearGradient id="linear-gradient-19" x1="1.781" y1="0.506" x2="2.778" y2="0.506" xlink:href="#linear-gradient-17"/>
    <linearGradient id="linear-gradient-20" x1="0.549" y1="0.204" x2="0.293" y2="3.433" xlink:href="#linear-gradient-15"/>
    <linearGradient id="linear-gradient-21" x1="0.44" y1="-0.008" x2="0.938" y2="4.489" xlink:href="#linear-gradient-15"/>
    <linearGradient id="linear-gradient-22" x1="-16.588" y1="-2.229" x2="-15.747" y2="-2.229" gradientUnits="objectBoundingBox">
      <stop offset="0" stop-color="#311944"/>
      <stop offset="1" stop-color="#893976"/>
    </linearGradient>
    <linearGradient id="linear-gradient-23" x1="44.094" y1="-34.644" x2="44.974" y2="-34.644" xlink:href="#linear-gradient-15"/>
    <linearGradient id="linear-gradient-24" x1="-9.255" y1="-0.802" x2="-8.367" y2="-0.802" xlink:href="#linear-gradient-22"/>
    <linearGradient id="linear-gradient-25" x1="0" y1="0.5" x2="1" y2="0.5" xlink:href="#linear-gradient-2"/>
    <linearGradient id="linear-gradient-27" x1="-8.719" y1="2.148" x2="-9.222" y2="1.605" xlink:href="#linear-gradient-2"/>
    <linearGradient id="linear-gradient-28" x1="-10.056" y1="1.405" x2="-9.332" y2="2.173" xlink:href="#linear-gradient-2"/>
    <linearGradient id="linear-gradient-29" x1="-97.683" y1="-29.044" x2="-97.478" y2="-30.776" xlink:href="#linear-gradient-15"/>
  </defs>
  <g id="Illustration" transform="translate(-649.719 -468.914)">
    <g id="Group_41" data-name="Group 41" transform="translate(649.719 468.914)">
      <g id="Group_18" data-name="Group 18" transform="translate(161.669 0)">
        <path id="Path_16" data-name="Path 16" d="M1935.417,520.3a64.2,64.2,0,0,0-10.005,0c-.063-.321-.13-.642-.221-.962a11.975,11.975,0,0,0-14.571-8.281,11.559,11.559,0,0,0-8.138,14.372c.093.327.206.643.324.955a63.619,63.619,0,0,0-8.589,4.977c-.219-.254-.443-.505-.688-.744a11.851,11.851,0,0,0-16.688.014,11.682,11.682,0,0,0,.237,16.587c.24.235.491.449.744.659a62.208,62.208,0,0,0-4.87,8.622c-.313-.111-.63-.218-.957-.3a11.643,11.643,0,0,0-14.334,8.306,11.889,11.889,0,0,0,8.549,14.358c.327.087.655.15.982.208a63.037,63.037,0,0,0,.131,9.945c-.322.058-.644.121-.965.207a11.559,11.559,0,0,0-8.139,14.372,11.975,11.975,0,0,0,14.571,8.281c.328-.088.644-.2.957-.309a65.326,65.326,0,0,0,5.123,8.6c-.252.214-.5.434-.739.674a11.681,11.681,0,0,0,.237,16.587,11.851,11.851,0,0,0,16.688-.014c.232-.235.445-.482.653-.73a65.014,65.014,0,0,0,8.741,4.955c-.108.31-.211.623-.294.948a11.889,11.889,0,0,0,8.549,14.358,11.643,11.643,0,0,0,14.334-8.306c.083-.324.142-.649.2-.974a64.166,64.166,0,0,0,10.005,0c.063.321.131.641.222.962a11.975,11.975,0,0,0,14.571,8.281,11.559,11.559,0,0,0,8.139-14.372c-.093-.327-.206-.643-.324-.955a63.624,63.624,0,0,0,8.589-4.977c.219.254.444.505.688.745a11.851,11.851,0,0,0,16.688-.014,11.681,11.681,0,0,0-.237-16.587c-.24-.234-.49-.449-.744-.659a62.167,62.167,0,0,0,4.87-8.622c.314.111.63.218.957.3a11.644,11.644,0,0,0,14.334-8.306,11.889,11.889,0,0,0-8.55-14.358c-.327-.086-.655-.15-.982-.208a63.006,63.006,0,0,0-.131-9.945c.322-.058.644-.121.965-.207a11.559,11.559,0,0,0,8.139-14.372,11.975,11.975,0,0,0-14.571-8.281c-.328.088-.644.2-.957.309a65.3,65.3,0,0,0-5.123-8.6c.253-.215.5-.434.74-.674a11.681,11.681,0,0,0-.237-16.587,11.851,11.851,0,0,0-16.688.014c-.233.235-.445.482-.654.731a65.011,65.011,0,0,0-8.741-4.955c.108-.31.211-.623.294-.947a11.889,11.889,0,0,0-8.549-14.358,11.643,11.643,0,0,0-14.334,8.306C1935.531,519.652,1935.472,519.977,1935.417,520.3Zm6.41,22.537c22.943,6.068,36.84,29.407,31.04,52.13a42.274,42.274,0,0,1-52.043,30.156c-22.943-6.068-36.84-29.407-31.041-52.13A42.274,42.274,0,0,1,1941.827,542.839Z" transform="translate(-1857.297 -510.622)" fill="#190e34"/>
      </g>
      <g id="Group_19" data-name="Group 19" transform="translate(307.114 85.861)">
        <path id="Path_17" data-name="Path 17" d="M2704.284,996.729a29.183,29.183,0,0,0-4.51.637c-.049-.141-.1-.281-.161-.419a5.451,5.451,0,0,0-7.1-2.8,5.261,5.261,0,0,0-2.751,7c.063.141.134.276.207.41a28.945,28.945,0,0,0-3.553,2.791c-.115-.1-.233-.2-.358-.292a5.394,5.394,0,0,0-7.52,1.071,5.317,5.317,0,0,0,1.165,7.46c.123.091.25.171.378.25a28.307,28.307,0,0,0-1.645,4.2c-.148-.03-.3-.058-.451-.076a5.3,5.3,0,0,0-5.93,4.658,5.411,5.411,0,0,0,4.769,5.925c.153.018.3.026.456.031a28.724,28.724,0,0,0,.693,4.474c-.142.047-.283.1-.422.155a5.261,5.261,0,0,0-2.751,7,5.45,5.45,0,0,0,7.095,2.8c.142-.06.278-.129.411-.2a29.748,29.748,0,0,0,2.858,3.551c-.1.113-.2.228-.29.351a5.317,5.317,0,0,0,1.165,7.46,5.4,5.4,0,0,0,7.521-1.071c.089-.121.169-.245.247-.371a29.594,29.594,0,0,0,4.256,1.675c-.029.147-.055.295-.072.446a5.412,5.412,0,0,0,4.769,5.925,5.3,5.3,0,0,0,5.93-4.658c.017-.152.023-.3.027-.451a29.219,29.219,0,0,0,4.509-.637c.049.141.1.281.162.419a5.45,5.45,0,0,0,7.094,2.8,5.261,5.261,0,0,0,2.751-7c-.063-.141-.134-.276-.207-.41a28.981,28.981,0,0,0,3.553-2.791c.115.1.232.2.358.291a5.393,5.393,0,0,0,7.52-1.071,5.317,5.317,0,0,0-1.165-7.46c-.123-.09-.25-.171-.377-.25a28.374,28.374,0,0,0,1.645-4.2c.148.03.3.058.45.076a5.3,5.3,0,0,0,5.93-4.658,5.411,5.411,0,0,0-4.769-5.925c-.153-.018-.3-.026-.456-.031a28.756,28.756,0,0,0-.693-4.474c.141-.047.282-.1.422-.155a5.261,5.261,0,0,0,2.751-7,5.45,5.45,0,0,0-7.095-2.8c-.142.061-.278.129-.411.2a29.7,29.7,0,0,0-2.858-3.551c.1-.113.2-.228.291-.351a5.317,5.317,0,0,0-1.165-7.46,5.394,5.394,0,0,0-7.52,1.071c-.09.121-.17.245-.248.371a29.6,29.6,0,0,0-4.256-1.676c.029-.147.055-.294.072-.446a5.411,5.411,0,0,0-4.769-5.925,5.3,5.3,0,0,0-5.93,4.658C2704.293,996.429,2704.288,996.58,2704.284,996.729Zm4.326,9.748a19.649,19.649,0,0,1,17.315,21.514,19.242,19.242,0,0,1-21.531,16.911,19.648,19.648,0,0,1-17.314-21.514A19.242,19.242,0,0,1,2708.61,1006.477Z" transform="translate(-2672.028 -991.582)" fill="#283646"/>
      </g>
      <g id="Group_21" data-name="Group 21" transform="translate(0 60.553)">
        <path id="Path_18" data-name="Path 18" d="M1163.958,863.974l44.056,366.188a9.649,9.649,0,0,1-8.425,10.939l-183.5,20.145c-11.241.7-17.4-5.044-18.09-10.882L951.745,861.045c-.69-5.806,4.825-11.064,16.114-11.064l185.17,3.9A11.673,11.673,0,0,1,1163.958,863.974Z" transform="translate(-951.688 -849.952)" fill="url(#linear-gradient-2)"/>
        <path id="Path_19" data-name="Path 19" d="M1206.367,863.212l44.3,368.02a9.694,9.694,0,0,1-8.453,11l-190.239,18.94a11.121,11.121,0,0,1-12.128-9.589L993.332,860.247c-.693-5.836,3.687-10.527,9.717-10.425l192.347,3.245A11.727,11.727,0,0,1,1206.367,863.212Z" transform="translate(-985.838 -849.82)" fill="url(#linear-gradient-3)"/>
        <path id="Path_20" data-name="Path 20" d="M1246.011,986.318l41.059,341.228a9.04,9.04,0,0,1-7.916,10.253l-178.913,17.392a10.373,10.373,0,0,1-11.275-8.951l-42.985-361.5a8.647,8.647,0,0,1,9.021-9.771l180.749,1.925A10.881,10.881,0,0,1,1246.011,986.318Z" transform="translate(-1029.092 -952.627)" fill="#d8dee8"/>
        <path id="Path_21" data-name="Path 21" d="M1596.373,906.854a3.044,3.044,0,0,1-3.142,3.5,4.2,4.2,0,0,1-4-3.6,3.045,3.045,0,0,1,3.15-3.5A4.2,4.2,0,0,1,1596.373,906.854Z" transform="translate(-1475.397 -893.715)" fill="#fff"/>
        <g id="Group_20" data-name="Group 20" transform="translate(7.421)" style="mix-blend-mode: soft-light;isolation: isolate">
          <path id="Path_22" data-name="Path 22" d="M1171.825,1112.565c-36.627-67.719-91.343-87.989-107.817-157.781-8.9-37.725-2.838-73.833,7.381-103.809l-68.34-1.153c-6.03-.1-10.41,4.589-9.717,10.425l46.514,391.331a11.121,11.121,0,0,0,12.128,9.589l149.546-14.889C1202.626,1185.6,1188.152,1142.751,1171.825,1112.565Z" transform="translate(-993.26 -849.82)" fill="#52ffff"/>
        </g>
      </g>
      <g id="Group_26" data-name="Group 26" transform="translate(37.663 97.331)">
        <path id="Path_23" data-name="Path 23" d="M1350.8,1063.871l-178.1,2.286a10.007,10.007,0,0,0-9.954,11.493l3.525,29.563a12.769,12.769,0,0,0,12.647,11.1l177.9-3.977c5.821-.13,9.947-5.131,9.227-11.171l-3.4-28.489C1361.929,1068.632,1356.63,1063.8,1350.8,1063.871Z" transform="translate(-1162.664 -1062.436)" fill="url(#linear-gradient-4)"/>
        <path id="Path_24" data-name="Path 24" d="M1482.194,1365.576l-177.852,4.38a10.146,10.146,0,0,0-9.939,11.626l3.525,29.563a12.582,12.582,0,0,0,12.632,10.962l177.651-6.071c5.813-.2,9.932-5.255,9.212-11.295l-3.4-28.489C1493.306,1370.213,1488.014,1365.433,1482.194,1365.576Z" transform="translate(-1270.818 -1310.279)" fill="url(#linear-gradient-5)"/>
        <path id="Path_25" data-name="Path 25" d="M1500.75,2285.741l-177.23,9.6a10.5,10.5,0,0,0-9.9,11.957l10.979,92.085a11.958,11.958,0,0,0,12.577,10.5l176.787-13.312c5.785-.436,9.881-5.684,9.161-11.723l-10.58-88.739C1511.824,2290.069,1506.549,2285.427,1500.75,2285.741Z" transform="translate(-1286.604 -2066.166)" fill="url(#linear-gradient-6)"/>
        <path id="Path_26" data-name="Path 26" d="M1269.7,1876.819l72.286-3.73a10.218,10.218,0,0,0,9.585-11.715l-6.856-57.5a12.239,12.239,0,0,0-12.263-10.751l-72.414,2.659a10.289,10.289,0,0,0-9.922,11.761l6.976,58.512A12.312,12.312,0,0,0,1269.7,1876.819Z" transform="translate(-1234.441 -1661.494)" fill="url(#linear-gradient-7)"/>
        <path id="Path_27" data-name="Path 27" d="M1936.491,1771.49l-69.6,2.555a9.991,9.991,0,0,0-9.508,11.521l6.838,57.356a11.955,11.955,0,0,0,12.142,10.565l69.481-3.585c5.8-.3,9.91-5.437,9.19-11.477l-6.722-56.386C1947.587,1776,1942.3,1771.277,1936.491,1771.49Z" transform="translate(-1733.291 -1643.726)" fill="url(#linear-gradient-8)"/>
        <path id="Path_28" data-name="Path 28" d="M1363.007,1055.834l-178.1,2.286a10.008,10.008,0,0,0-9.954,11.493l3.524,29.563a12.77,12.77,0,0,0,12.647,11.1l177.9-3.977c5.821-.13,9.947-5.131,9.227-11.171l-3.4-28.489C1374.133,1060.595,1368.834,1055.759,1363.007,1055.834Z" transform="translate(-1172.69 -1055.833)" fill="url(#linear-gradient-9)"/>
        <path id="Path_29" data-name="Path 29" d="M1494.4,1357.539l-177.852,4.38a10.145,10.145,0,0,0-9.938,11.625l3.524,29.563a12.582,12.582,0,0,0,12.632,10.962L1500.414,1408c5.813-.2,9.932-5.255,9.212-11.295l-3.4-28.489C1505.51,1362.176,1500.218,1357.4,1494.4,1357.539Z" transform="translate(-1280.844 -1303.676)" fill="#179afb"/>
        <path id="Path_30" data-name="Path 30" d="M1512.953,2277.7l-177.23,9.6a10.5,10.5,0,0,0-9.9,11.957l10.979,92.085a11.958,11.958,0,0,0,12.577,10.5l176.787-13.312c5.785-.436,9.881-5.684,9.161-11.723l-10.58-88.74C1524.027,2282.031,1518.752,2277.389,1512.953,2277.7Z" transform="translate(-1296.629 -2059.563)" fill="url(#linear-gradient-10)"/>
        <path id="Path_31" data-name="Path 31" d="M1281.908,1868.781l72.286-3.73a10.217,10.217,0,0,0,9.585-11.715l-6.856-57.5a12.238,12.238,0,0,0-12.263-10.75l-72.414,2.658a10.289,10.289,0,0,0-9.922,11.762l6.976,58.512A12.312,12.312,0,0,0,1281.908,1868.781Z" transform="translate(-1244.465 -1654.891)" fill="#179afb"/>
        <path id="Path_32" data-name="Path 32" d="M1281.908,1868.781l72.286-3.73a10.217,10.217,0,0,0,9.585-11.715l-6.856-57.5a12.238,12.238,0,0,0-12.263-10.75l-72.414,2.658a10.289,10.289,0,0,0-9.922,11.762l6.976,58.512A12.312,12.312,0,0,0,1281.908,1868.781Z" transform="translate(-1244.465 -1654.891)" fill="#fff" opacity="0.5" style="mix-blend-mode: soft-light;isolation: isolate"/>
        <path id="Path_33" data-name="Path 33" d="M1948.694,1763.452l-69.6,2.555a9.991,9.991,0,0,0-9.508,11.521l6.838,57.356a11.955,11.955,0,0,0,12.142,10.565l69.481-3.586c5.8-.3,9.91-5.437,9.191-11.477L1960.511,1774C1959.791,1767.962,1954.506,1763.239,1948.694,1763.452Z" transform="translate(-1743.316 -1637.123)" fill="#52ffff"/>
        <g id="Group_22" data-name="Group 22" transform="translate(25.682 56.038)" opacity="0.5" style="mix-blend-mode: soft-light;isolation: isolate">
          <path id="Path_34" data-name="Path 34" d="M1316.546,1371.944a10.145,10.145,0,0,0-9.938,11.625l3.525,29.563a12.581,12.581,0,0,0,12.631,10.962l124.844-4.266c-13.419-18.624-30.842-33.018-41.54-50.089Z" transform="translate(-1306.526 -1369.739)" fill="#fff"/>
        </g>
        <g id="Group_23" data-name="Group 23" transform="translate(29.112 222.183)" opacity="0.5" style="mix-blend-mode: soft-light;isolation: isolate">
          <path id="Path_35" data-name="Path 35" d="M1438.3,2300.419l-102.573,5.555a10.5,10.5,0,0,0-9.9,11.957l10.979,92.085a11.958,11.958,0,0,0,12.576,10.5l79.5-5.987a131.9,131.9,0,0,1-9.736-47.478C1418.8,2338.561,1428.439,2318.7,1438.3,2300.419Z" transform="translate(-1325.741 -2300.419)" fill="#fff"/>
        </g>
        <g id="Group_24" data-name="Group 24" transform="translate(126.184 128.193)" opacity="0.5" style="mix-blend-mode: soft-light;isolation: isolate">
          <path id="Path_36" data-name="Path 36" d="M1904.407,1795.845a88.545,88.545,0,0,0-6.474-21.921l-18.843.692a9.991,9.991,0,0,0-9.508,11.521l6.838,57.356a11.955,11.955,0,0,0,12.142,10.566l3.979-.205C1901.408,1836.774,1908.174,1819.468,1904.407,1795.845Z" transform="translate(-1869.5 -1773.924)" fill="#fff"/>
        </g>
        <g id="Group_25" data-name="Group 25" transform="translate(2.179 1.194)" opacity="0.5" style="mix-blend-mode: soft-light;isolation: isolate">
          <path id="Path_37" data-name="Path 37" d="M1264.839,1083.408a66.282,66.282,0,0,1,5.207-20.887l-85.142,1.093a10.008,10.008,0,0,0-9.954,11.493l3.525,29.563a12.77,12.77,0,0,0,12.647,11.1l79.934-1.787A56,56,0,0,1,1264.839,1083.408Z" transform="translate(-1174.868 -1062.521)" fill="#fff"/>
        </g>
      </g>
      <g id="Group_33" data-name="Group 33" transform="translate(59.862 163.297)">
        <g id="Group_32" data-name="Group 32" clip-path="url(#clip-path)">
          <g id="Group_31" data-name="Group 31" transform="translate(-22.193 -65.966)">
            <path id="Path_38" data-name="Path 38" d="M1350.831,1063.871l-178.1,2.286a10.007,10.007,0,0,0-9.954,11.493l3.525,29.563a12.769,12.769,0,0,0,12.647,11.1l177.9-3.977c5.821-.13,9.947-5.131,9.227-11.171l-3.4-28.489C1361.958,1068.632,1356.659,1063.8,1350.831,1063.871Z" transform="translate(-1162.693 -1062.436)" fill="url(#linear-gradient-4)"/>
            <path id="Path_39" data-name="Path 39" d="M1482.223,1365.576l-177.852,4.38a10.145,10.145,0,0,0-9.939,11.626l3.525,29.563a12.582,12.582,0,0,0,12.632,10.962l177.651-6.071c5.813-.2,9.932-5.255,9.212-11.295l-3.4-28.489C1493.334,1370.213,1488.042,1365.433,1482.223,1365.576Z" transform="translate(-1270.847 -1310.279)" fill="#8593a0"/>
            <path id="Path_40" data-name="Path 40" d="M1500.778,2285.741l-177.23,9.6a10.5,10.5,0,0,0-9.9,11.957l10.978,92.085a11.958,11.958,0,0,0,12.577,10.5l176.787-13.312c5.785-.436,9.881-5.684,9.161-11.723l-10.58-88.739C1511.852,2290.069,1506.577,2285.427,1500.778,2285.741Z" transform="translate(-1286.633 -2066.166)" fill="url(#linear-gradient-6)"/>
            <path id="Path_41" data-name="Path 41" d="M1269.733,1876.819l72.286-3.73a10.218,10.218,0,0,0,9.585-11.715l-6.856-57.5a12.239,12.239,0,0,0-12.263-10.751l-72.414,2.659a10.289,10.289,0,0,0-9.922,11.761l6.976,58.512A12.313,12.313,0,0,0,1269.733,1876.819Z" transform="translate(-1234.469 -1661.494)" fill="#8593a0"/>
            <path id="Path_42" data-name="Path 42" d="M1936.519,1771.49l-69.6,2.555a9.99,9.99,0,0,0-9.508,11.521l6.838,57.356a11.954,11.954,0,0,0,12.141,10.565l69.481-3.585c5.8-.3,9.91-5.437,9.19-11.477l-6.723-56.386C1947.616,1776,1942.33,1771.277,1936.519,1771.49Z" transform="translate(-1733.32 -1643.726)" fill="#8593a0"/>
            <path id="Path_43" data-name="Path 43" d="M1363.035,1055.834l-178.1,2.286a10.008,10.008,0,0,0-9.954,11.493l3.525,29.563a12.769,12.769,0,0,0,12.647,11.1l177.9-3.977c5.821-.13,9.947-5.131,9.227-11.171l-3.4-28.489C1374.161,1060.595,1368.862,1055.759,1363.035,1055.834Z" transform="translate(-1172.718 -1055.833)" fill="url(#linear-gradient-13)"/>
            <path id="Path_44" data-name="Path 44" d="M1494.427,1357.539l-177.853,4.38a10.145,10.145,0,0,0-9.938,11.625l3.525,29.563a12.582,12.582,0,0,0,12.632,10.962L1500.443,1408c5.813-.2,9.932-5.255,9.212-11.295l-3.4-28.489C1505.538,1362.176,1500.246,1357.4,1494.427,1357.539Z" transform="translate(-1280.872 -1303.676)" fill="#bfc8d6"/>
            <path id="Path_45" data-name="Path 45" d="M1512.981,2277.7l-177.23,9.6a10.5,10.5,0,0,0-9.9,11.957l10.979,92.085a11.959,11.959,0,0,0,12.577,10.5l176.787-13.312c5.785-.436,9.881-5.684,9.161-11.723l-10.58-88.74C1524.056,2282.031,1518.781,2277.389,1512.981,2277.7Z" transform="translate(-1296.658 -2059.563)" fill="url(#linear-gradient-14)"/>
            <path id="Path_46" data-name="Path 46" d="M1281.936,1868.781l72.286-3.73a10.218,10.218,0,0,0,9.585-11.715l-6.856-57.5a12.238,12.238,0,0,0-12.263-10.75l-72.414,2.658a10.289,10.289,0,0,0-9.922,11.762l6.976,58.512A12.312,12.312,0,0,0,1281.936,1868.781Z" transform="translate(-1244.494 -1654.891)" fill="#bfc8d6"/>
            <path id="Path_47" data-name="Path 47" d="M1281.908,1868.781l72.286-3.73a10.217,10.217,0,0,0,9.585-11.715l-6.856-57.5a12.238,12.238,0,0,0-12.263-10.75l-72.414,2.658a10.289,10.289,0,0,0-9.922,11.762l6.976,58.512A12.312,12.312,0,0,0,1281.908,1868.781Z" transform="translate(-1244.471 -1654.891)" fill="#fff" opacity="0.4" style="mix-blend-mode: soft-light;isolation: isolate"/>
            <path id="Path_48" data-name="Path 48" d="M1948.723,1763.452l-69.6,2.555a9.991,9.991,0,0,0-9.508,11.521l6.838,57.356a11.955,11.955,0,0,0,12.142,10.565l69.481-3.586c5.8-.3,9.91-5.437,9.19-11.477L1960.54,1774C1959.82,1767.962,1954.535,1763.239,1948.723,1763.452Z" transform="translate(-1743.345 -1637.123)" fill="#bfc8d6"/>
            <g id="Group_27" data-name="Group 27" transform="translate(25.682 56.038)" opacity="0.4" style="mix-blend-mode: soft-light;isolation: isolate">
              <path id="Path_49" data-name="Path 49" d="M1316.574,1371.944a10.145,10.145,0,0,0-9.938,11.625l3.525,29.563a12.581,12.581,0,0,0,12.631,10.962l124.844-4.266c-13.419-18.624-30.842-33.018-41.54-50.089Z" transform="translate(-1306.554 -1369.739)" fill="#fff"/>
            </g>
            <g id="Group_28" data-name="Group 28" transform="translate(29.112 222.183)" opacity="0.5" style="mix-blend-mode: soft-light;isolation: isolate">
              <path id="Path_50" data-name="Path 50" d="M1438.324,2300.419l-102.573,5.555a10.5,10.5,0,0,0-9.9,11.957l10.979,92.085a11.959,11.959,0,0,0,12.576,10.5l79.5-5.987a131.906,131.906,0,0,1-9.736-47.478C1418.83,2338.561,1428.468,2318.7,1438.324,2300.419Z" transform="translate(-1325.77 -2300.419)" fill="#fff"/>
            </g>
            <g id="Group_29" data-name="Group 29" transform="translate(126.184 128.193)" opacity="0.4" style="mix-blend-mode: soft-light;isolation: isolate">
              <path id="Path_51" data-name="Path 51" d="M1904.436,1795.845a88.545,88.545,0,0,0-6.474-21.921l-18.843.692a9.991,9.991,0,0,0-9.508,11.521l6.838,57.356a11.955,11.955,0,0,0,12.142,10.566l3.979-.205C1901.436,1836.774,1908.2,1819.468,1904.436,1795.845Z" transform="translate(-1869.529 -1773.924)" fill="#fff"/>
            </g>
            <g id="Group_30" data-name="Group 30" transform="translate(2.178 1.194)" opacity="0.5" style="mix-blend-mode: soft-light;isolation: isolate">
              <path id="Path_52" data-name="Path 52" d="M1264.867,1083.408a66.282,66.282,0,0,1,5.207-20.887l-85.142,1.093a10.008,10.008,0,0,0-9.954,11.493l3.525,29.563a12.77,12.77,0,0,0,12.647,11.1l79.934-1.787A56,56,0,0,1,1264.867,1083.408Z" transform="translate(-1174.896 -1062.521)" fill="#fff"/>
            </g>
          </g>
        </g>
      </g>
      <g id="Group_38" data-name="Group 38" transform="translate(53.079 154.382)">
        <path id="Path_67" data-name="Path 67" d="M2477.66,3036.412s-16.157,7.39-16.418,8.564,10.4-.418,14.755-.26,7.933-1.137,7.535-2.98-1.934-6.478-1.934-6.478Z" transform="translate(-2244.833 -2738.944)" fill="#190e34"/>
        <path id="Path_68" data-name="Path 68" d="M2549.836,3004.238l1,7.28s2.563.906,4.28-.177l.715-7.989Z" transform="translate(-2317.615 -2712.733)" fill="url(#linear-gradient-15)"/>
        <path id="Path_69" data-name="Path 69" d="M2922.956,3008.265l1.889,3.015a3.6,3.6,0,0,1,.438,2.823c-.652,2.513-1.954,7.411-2.524,8.688-.776,1.74-11.24,2.8-11.24,2.8s-.936-1.311,1.233-2.9,3.566-1.845,4.327-4.188,1.257-8.966,1.257-8.966Z" transform="translate(-2614.565 -2716.77)" fill="#190e34"/>
        <path id="Path_70" data-name="Path 70" d="M2932.549,2961.3c.689.546,4.075,10.742,4.075,10.742s1.091,1.389,3.154-.669.933-.924.933-.924l-.412-10.035Z" transform="translate(-2632.006 -2677.461)" fill="url(#linear-gradient-16)"/>
        <path id="Path_71" data-name="Path 71" d="M2495.533,2142.012c-.8,21.725-.78,45.326.531,70.535,1.475,28.388,4.366,54.623,7.987,78.4,1.325.04,2.717.043,4.171,0,.982-.03,1.934-.08,2.853-.145a180.706,180.706,0,0,0,5.948-19.181,184.534,184.534,0,0,0,4.13-22.453c3.055-24.611-.6-26.749,1.884-44.989,2.2-16.154,5.382-16.792,9.064-39.729,4-24.887.968-28.612-.5-29.957C2525.335,2128.768,2510.666,2132.711,2495.533,2142.012Z" transform="translate(-2272.563 -1996.792)" fill="url(#linear-gradient-17)"/>
        <path id="Path_72" data-name="Path 72" d="M2543.71,2134.509c-5.973-5.46-19.6-2.113-33.974,6.277,16.605,17.855,18.439,29.458,16.471,36.995-2.223,8.518-9.04,10.986-8.992,20.294.06,11.439,10.391,14.444,10.2,26.549-.126,8-4.663,7.933-5.71,17.821-1.24,11.7,4.7,15.717,2.8,24.375-.817,3.725-3.162,8.6-9.863,13.624.492,3.553,1,7.07,1.523,10.52,1.324.038,2.717.043,4.171,0q1.473-.044,2.853-.145a180.712,180.712,0,0,0,5.948-19.181,184.492,184.492,0,0,0,4.13-22.453c3.055-24.611-.6-26.749,1.884-44.989,2.2-16.155,5.382-16.793,9.064-39.729C2548.209,2139.578,2545.182,2135.853,2543.71,2134.509Z" transform="translate(-2284.674 -1996.807)" opacity="0.3" fill="url(#linear-gradient-18)" style="mix-blend-mode: multiply;isolation: isolate"/>
        <path id="Path_73" data-name="Path 73" d="M2555.481,2130.781a487.785,487.785,0,0,1,67.213,142.962,8.716,8.716,0,0,0,4.775.729,8.884,8.884,0,0,0,5.4-2.935,140.49,140.49,0,0,0,1.157-34.641,119.393,119.393,0,0,0-4.934-26.022c-3.968-12.689-6.676-13.4-11.845-26.82-5.365-13.932-4.082-17.415-9.229-34.854a230.268,230.268,0,0,0-11.475-30.572Z" transform="translate(-2322.252 -1985.95)" fill="url(#linear-gradient-19)"/>
        <path id="Path_74" data-name="Path 74" d="M2229.826,1671.59c.135,5.069,8.467,9.534,15.175,10.9,15.685,3.2,33.869-8.2,42.5-20.8,1.695-2.476,3.578-5.477,4.032-5.245,1.026.526-8.4,16.018-12.491,33.639-2.092,9.014-1.544,13.236-5.455,19.237-.885,1.359-1.977,2.775-1.594,4.383.961,4.028,10.173,5.073,16.562,5.8a147.428,147.428,0,0,0,19.256.6c9.956-.145,10.74-.662,13.013.453,6.925,3.4,6.455,11.542,11.667,12.627,4.376.912,8.815-3.975,10.223-5.524,7.316-8.054,6.925-17.764,8.223-27.557,3.016-22.77,15.387-47.716,27.488-63.508,3.67-4.789,6.223-7.308,6.381-11.76.469-13.066-20.232-27.49-37.467-29.148a129.438,129.438,0,0,0-21.113.437c-3.17.3-6.544.738-10.171,1.373-8.8,1.539-14.92,2.61-21.16,5.465-25.163,11.514-19.672,37.142-46.907,54.862C2238.625,1663.917,2229.685,1666.281,2229.826,1671.59Z" transform="translate(-2054.732 -1556.153)" fill="#fff"/>
        <path id="Path_75" data-name="Path 75" d="M2737.468,1520.948a37.449,37.449,0,0,0,3.569,10.324c2.248,3.88,11.544,5.271,13.481,5.947s-2.922,4.048-8.089,5.271-20.279,2.023-23.239.4,1.922-2.124,5.477-3.993,4.745-9.467,3.644-12.7S2737.468,1520.948,2737.468,1520.948Z" transform="translate(-2459.271 -1494.967)" fill="url(#linear-gradient-20)"/>
        <g id="Group_36" data-name="Group 36" transform="translate(264.611 12.5)">
          <path id="Path_76" data-name="Path 76" d="M2735.034,1457.169c-3.749-2.68-4.788-9.926-2.705-11.553.6-.465,1.164-.251,9.625,3.143,4.2,1.686,6.269,2.583,6.949,4.439a5.887,5.887,0,0,1-.111,3.869,14.831,14.831,0,0,1-1.721,2.867c-.909,1.308-.847,1.264-1.126,1.644a20.618,20.618,0,0,1-4.327,4.234,14.352,14.352,0,0,0-.688-2.4,12.675,12.675,0,0,0-1.531-2.848C2737.925,1458.6,2736.251,1458.039,2735.034,1457.169Z" transform="translate(-2731.271 -1445.433)"/>
          <path id="Path_77" data-name="Path 77" d="M2758.491,1508.883a7.786,7.786,0,0,1-7,3.158c-4.068-.444-4.266-9.619-1.575-11.447a5.154,5.154,0,0,1,4.049-.344c.826.271,1.094.631,2.452,1.047,1.252.384,1.617.259,1.985.6.461.424.768,1.426-.148,4.066a2.222,2.222,0,0,1,2.409-.675,1.393,1.393,0,0,1,.52.553C2761.711,1506.911,2760.7,1508.2,2758.491,1508.883Z" transform="translate(-2745.119 -1490.257)" fill="url(#linear-gradient-21)"/>
        </g>
        <path id="Path_78" data-name="Path 78" d="M2263.177,1898.517c11.372-2.561,15.9-2.479,21.527-7.01,9.363-7.544,10.769-19.026,16.21-18.886,2.572.066,4.66,2.692,6.147,5.264l-4.109,6.435c-.006-.081-.024-.145-.069-.168-.454-.232-2.337,2.769-4.032,5.245-8.631,12.607-26.816,24-42.5,20.8-4.5-.918-9.713-3.231-12.711-6.181A194.234,194.234,0,0,1,2263.177,1898.517Z" transform="translate(-2066.08 -1783.859)" opacity="0.3" fill="url(#linear-gradient-22)" style="mix-blend-mode: multiply;isolation: isolate"/>
        <path id="Path_79" data-name="Path 79" d="M2174.706,2059.443s-6.417-.638-10.24-2.274-6.294.713-5.943,2.34,6.642,3.89,9.155,3.971S2174.706,2059.443,2174.706,2059.443Z" transform="translate(-1996.131 -1935.007)" fill="url(#linear-gradient-23)"/>
        <path id="Path_80" data-name="Path 80" d="M2874.233,1746.092c6.889.615,22.4.9,33.367-9.253,18.261-16.893,9.2-49.049,2.845-62.878-7.288-15.856-18.886-24.73-25.935-30.124-8.745-6.692-14.083-10.776-20.5-9.861-16.608,2.365-28.111,36.4-18.993,46.15,2.985,3.19,5.941,1.384,14.579,4.135,2.813.9,23.808,7.583,27.464,23.047,2.558,10.823-3.955,23.5-15.549,32.007Z" transform="translate(-2557.454 -1587.714)" fill="#fff"/>
        <path id="Path_81" data-name="Path 81" d="M2491.2,1890.488c7.8-4.929,8.954-9.925,17.688-13.3,11.346-4.385,16.8,1.185,22.425-3.312,6.695-5.352.768-14.677,5.778-30.859.85-2.747,7.309-23.609,22.128-26.267,6.91-1.239,16.038,1.408,19.555,7.264,2.752,4.583.188,8,3.535,13.059s7.344,3.82,11.607,8.037c6.769,6.7,7.807,20.816,1.7,28.8-2.85,3.725-6.555,5.2-13.525,7.969a65.655,65.655,0,0,1-11.624,3.415c8.535-8.192,12.964-18.756,10.782-27.984-2.278-9.639-11.294-15.867-18.444-19.409-7.155,13.465-13,29.068-14.95,43.767-1.3,9.793-.907,19.5-8.223,27.557-1.408,1.549-5.847,6.436-10.223,5.524-5.211-1.086-4.742-9.229-11.667-12.627-2.272-1.115-3.057-.6-13.012-.453a147.455,147.455,0,0,1-19.257-.6c-5.682-.646-13.582-1.55-15.94-4.574C2479.787,1896.216,2486.634,1893.372,2491.2,1890.488Z" transform="translate(-2251.644 -1737.716)" opacity="0.3" fill="url(#linear-gradient-24)" style="mix-blend-mode: multiply;isolation: isolate"/>
        <g id="Group_37" data-name="Group 37">
          <path id="Path_82" data-name="Path 82" d="M2260.3,2028.015l.8-2.361a7,7,0,0,0-4.7-8.958l-151.825-46.249-4.626,15.681,151.059,46.527A7.494,7.494,0,0,0,2260.3,2028.015Z" transform="translate(-1948.05 -1864.221)" fill="url(#linear-gradient-25)"/>
          <path id="Path_83" data-name="Path 83" d="M1268.215,1439.156c11.608-45.86,57.1-73.5,102.083-60.545,45.812,13.191,72.04,62.828,58.121,109.618-13.592,45.692-60.2,70.341-103.7,56.244C1281.975,1530.619,1256.871,1483.973,1268.215,1439.156Zm146.99,45.026c11.5-39.158-10.445-80.633-48.7-91.762-37.678-10.961-75.957,12.046-85.835,50.551-9.688,37.767,11.468,77.132,47.561,88.729C1364.856,1543.467,1403.927,1522.568,1415.2,1484.181Z" transform="translate(-1262.551 -1375.413)" fill="url(#linear-gradient-25)"/>
          <path id="Path_84" data-name="Path 84" d="M2104.585,1970.446l19.358,5.9c1.328,6.174,3.911,9.711,6.51,11.866,9.778,8.106,22.835-.734,41.052,8.77,9.141,4.77,7.4,7.8,15.972,11.133,14.165,5.5,20.649-2.119,33.185,2.888,12.68,5.065,13.93,16.011,21.121,15.619,3.076-.168,7.036-2.406,11.452-10.891l3.176.968a7,7,0,0,1,4.7,8.959l-.8,2.361a7.5,7.5,0,0,1-9.287,4.639l-151.059-46.528Z" transform="translate(-1948.05 -1864.221)" fill="#d8dee8" opacity="0.3" style="mix-blend-mode: multiply;isolation: isolate"/>
          <path id="Path_85" data-name="Path 85" d="M1251.742,1461.187c11.608-45.86,57.1-73.5,102.083-60.545,45.812,13.191,72.04,62.828,58.121,109.618-13.592,45.692-60.2,70.341-103.7,56.244C1265.5,1552.651,1240.4,1506,1251.742,1461.187Zm146.99,45.025c11.5-39.158-10.445-80.633-48.7-91.762-37.678-10.961-75.957,12.046-85.835,50.551-9.688,37.766,11.468,77.132,47.561,88.729C1348.383,1565.5,1387.455,1544.6,1398.732,1506.212Z" transform="translate(-1249.018 -1393.511)" fill="url(#linear-gradient-27)"/>
          <path id="Path_86" data-name="Path 86" d="M1276.972,1485.8c11-43.259,53.944-69.25,96.341-57,43.13,12.464,67.841,59.2,54.785,103.29-12.767,43.109-56.71,66.441-97.78,53.17C1289.918,1572.206,1266.207,1528.126,1276.972,1485.8Zm142.593,43.679c11.5-39.158-10.445-80.633-48.7-91.762-37.678-10.961-75.957,12.046-85.835,50.552-9.688,37.767,11.468,77.132,47.561,88.729C1369.216,1588.762,1408.288,1567.863,1419.565,1529.476Z" transform="translate(-1269.852 -1416.775)" fill="url(#linear-gradient-28)"/>
        </g>
        <path id="Path_87" data-name="Path 87" d="M2949.185,2226.548l-1.534-3.813a7.852,7.852,0,0,1-4.56-1.321,5.933,5.933,0,0,0-3.686-.882c-.578.16-2.76.065-.273,1.251s2.467,2.068,1.431,3.041-4.98,3.069-6.4,3.169,1.147,2.3,2.578,2.577a8.836,8.836,0,0,0,6.684-1.075C2944.485,2228.871,2949.185,2226.548,2949.185,2226.548Z" transform="translate(-2632.991 -2069.623)" fill="url(#linear-gradient-29)"/>
      </g>
      <path id="_8541921_dollar_sign_icon" data-name="8541921_dollar_sign_icon" d="M40.8,45.528,19.734,39.364a5.754,5.754,0,0,1,1.619-11.275H34.285a11.907,11.907,0,0,1,6.671,2.048,3.041,3.041,0,0,0,3.8-.39l6.788-6.632a3.162,3.162,0,0,0-.351-4.779,27.583,27.583,0,0,0-16.873-5.852V3.121A3.13,3.13,0,0,0,31.2,0H24.961A3.13,3.13,0,0,0,21.84,3.121v9.363h-.488A21.373,21.373,0,0,0,.09,35.814C.91,44.807,7.776,52.122,16.437,54.657l19.994,5.852a5.754,5.754,0,0,1-1.619,11.275H21.879a11.907,11.907,0,0,1-6.671-2.048,3.041,3.041,0,0,0-3.8.39L4.616,76.758a3.162,3.162,0,0,0,.351,4.779A27.583,27.583,0,0,0,21.84,87.389v9.363a3.13,3.13,0,0,0,3.121,3.121H31.2a3.13,3.13,0,0,0,3.121-3.121v-9.4c9.09-.176,17.614-5.579,20.618-14.181A21.42,21.42,0,0,0,40.8,45.528Z" transform="matrix(0.998, -0.07, 0.07, 0.998, 106.731, 196.201)" fill="#f5b300"/>
    </g>
  </g>
</svg>
