<svg xmlns="http://www.w3.org/2000/svg" width="41" height="41" viewBox="0 0 41 41">
  <path id="_5279123_tweet_twitter_twitter_logo_icon" data-name="5279123_tweet_twitter_twitter logo_icon" d="M20.5,0A20.5,20.5,0,1,1,0,20.5,20.51,20.51,0,0,1,20.5,0ZM16.889,31.4A13.937,13.937,0,0,0,30.921,17.372c0-.215,0-.43-.01-.634a10.1,10.1,0,0,0,2.465-2.557,10.008,10.008,0,0,1-2.833.777,4.929,4.929,0,0,0,2.168-2.731,9.988,9.988,0,0,1-3.13,1.2A4.934,4.934,0,0,0,21.052,16.8a4.521,4.521,0,0,0,.133,1.125,13.99,13.99,0,0,1-10.166-5.154,4.929,4.929,0,0,0,1.534,6.576,4.844,4.844,0,0,1-2.23-.614v.061a4.937,4.937,0,0,0,3.958,4.837,4.919,4.919,0,0,1-1.3.174,4.7,4.7,0,0,1-.931-.092,4.924,4.924,0,0,0,4.6,3.426,9.913,9.913,0,0,1-6.126,2.107,8.975,8.975,0,0,1-1.176-.072A13.74,13.74,0,0,0,16.889,31.4Z" fill-rule="evenodd"/>
</svg>
