<svg xmlns="http://www.w3.org/2000/svg" width="89" height="89" viewBox="0 0 89 89">
  <path id="_307313_seo_web_page_logo_website_icon" data-name="307313_seo_web_page_logo_website_icon" d="M44.5,89A44.5,44.5,0,1,1,53.265.866a2.776,2.776,0,0,1-.421,5.52,2.67,2.67,0,0,1-.535-.054l0,.016a38.894,38.894,0,0,0-38.63,14.42L29.241,67.7s0-.005.005,0a1.391,1.391,0,0,0,2.667.09s0,0,0,0l4.335-13.073a2.839,2.839,0,0,1,5.509.967,2.9,2.9,0,0,1-.221,1.1l.019.008L35.855,74a5.408,5.408,0,0,1-1.328,2.154,5.556,5.556,0,0,1-7.864,0,5.485,5.485,0,0,1-1.308-2.091L9.751,27A38.925,38.925,0,1,0,83.438,44.5a38.542,38.542,0,0,0-5.62-20.021,2.782,2.782,0,0,0-5.508.553c0,1.419,2.654,12.094,1.554,18.171L63.643,74.076a5.477,5.477,0,0,1-1.3,2.082,5.561,5.561,0,0,1-7.868,0,5.5,5.5,0,0,1-1.314-2.127L44.5,47.921l0,.01-3-9.046,0-.007L36.273,23.1a2.779,2.779,0,0,1,1.827-3.52,2.865,2.865,0,0,1,3.593,1.793L57.054,67.7s0-.005.005,0a1.422,1.422,0,0,0,.361.636,1.392,1.392,0,0,0,2.306-.546s0,0,0,0l8.376-25.3c.894-4.634-1.358-13.279-1.358-17.552A8.231,8.231,0,0,1,82.14,20.859h.054A44.491,44.491,0,0,1,44.5,89ZM63.969,11.124a2.781,2.781,0,1,1,2.778-2.783,2.781,2.781,0,0,1-2.778,2.783Z" fill="#179afb" fill-rule="evenodd"/>
</svg>
